<?xml version="1.0" encoding="utf-8"?>
<!-- Generator: Adobe Illustrator 24.0.2, SVG Export Plug-In . SVG Version: 6.00 Build 0)  -->
<svg version="1.1" id="Capa_1" xmlns="http://www.w3.org/2000/svg" xmlns:xlink="http://www.w3.org/1999/xlink" x="0px" y="0px"
	 viewBox="0 0 300 300" style="enable-background:new 0 0 300 300;" xml:space="preserve">
<style type="text/css">
	.st0{fill:#58A0F5;}
	.st1{fill:#002C72;}
</style>
<path class="st0" d="M229,21.3c5.3,1.7,28.8,12.6,34.1,10.3c0.6-0.2,1.1-0.5,1.7-0.8c0,0,0,0,0,0c4.8-2.3,14.4-13.9,3.3-24.7
	c0,0,0,0,0,0c-1.3-1.3-2.9-2.4-4.6-3.1c-12.7-5.1-22.1-3.4-36.8,3.2c-13.5,6.1-19.3,11.6-19.3,11.6"/>
<path class="st0" d="M249.8,73.6C249.8,73.6,249.8,73.6,249.8,73.6c-1.3-4.4-3.2-8.5-5.7-11.8c-18.9-24.5-35.9-30.2-68.6-30.4
	c-40.2-0.3-70.4,22.5-84.3,34.9c-24.9,22-43.4,55.1-55.5,99.4c-0.1,0.3-0.2,0.6-0.2,0.9c0,0.1,0,0.1,0,0.2
	c-7.7,28.6-10,52.5-7.1,71.9c8.2-21.5,19.2-45.2,33.1-68.3c15.5-25.8,36.1-53.6,56.1-69.2c31.8-24.8,64-26,73.6,8.2
	c5,11.9,15,19.9,26.9,19.8c1.3,0,2.6-0.2,3.9-0.4c0,0,0.1,0,0.1,0C232.9,128,260.9,109.9,249.8,73.6z"/>
<path class="st1" d="M210.5,187.8C210.4,187.8,210.4,187.8,210.5,187.8c-1.4,0.2-2.6,0.3-4,0.6c-12.3,2.9-25.3,13.5-33,27.3
	c-18.7,33.6-43.1,39.7-72.1,33.1c-9.7-2.2-15.1-10.1-18.8-19.3c-6.8-14.8-6.4-36,1.1-63.5c2.7-10,5.9-19.1,9.5-27.4
	c-32.8,41.7-52.4,76.6-64,104c1.7,10.5,6.1,17.9,10.9,25.9c6.7,11.1,24.9,23.1,38.2,27.1c28.3,8.5,50.7,5.3,74.4-2.9
	c23.3-8.1,54.1-29.6,72.1-55c0,0,0,0,0,0C243,203.5,221.6,185.8,210.5,187.8z"/>
</svg>
