<?xml version="1.0" encoding="utf-8"?>
<!-- Generator: Adobe Illustrator 24.0.2, SVG Export Plug-In . SVG Version: 6.00 Build 0)  -->
<svg version="1.1" id="Capa_1" xmlns="http://www.w3.org/2000/svg" xmlns:xlink="http://www.w3.org/1999/xlink" x="0px" y="0px"
	 viewBox="0 0 444 109" style="enable-background:new 0 0 444 109;" xml:space="preserve">
<style type="text/css">
	.st0{opacity:0.65;fill:#FCFCFC;}
	.st1{opacity:0.65;}
	.st2{fill:#FCFCFC;}
</style>
<path class="st0" d="M31.8,67.5c0.6-0.2,1.1-0.3,1.4-0.4c5.4-1.7,9.3-2.5,11.6-2.5c1.8,0,2.6,0.7,2.6,2c0,0.5-0.2,1-0.6,1.4
	c-0.4,0.4-0.8,0.6-1.3,0.6c-0.2,0-0.6,0-1-0.1c-0.4-0.1-0.7-0.1-0.9-0.1c-1.4,0-3.2,0.3-5.4,0.9c-0.8,0.3-2.4,0.9-4.7,2
	c-1.6,0.7-2.9,1.1-3.9,1.1c-0.7,0-1.3-0.3-1.8-1c-0.4-0.6-0.7-1.3-0.7-2c0-0.9,0.5-2.3,1.4-4.4c2.9-6.4,6.1-12.1,9.4-17.2
	c4.8-7.3,8.5-12.6,11.2-16c0.7-0.9,1.5-1.8,2.2-2.8c1.1-1.5,2.1-2.3,3-2.3c0.4,0,0.8,0.2,1.1,0.5c0.3,0.3,0.5,0.7,0.5,1
	c0,0.5-0.4,1.3-1.2,2.4c-0.2,0.2-1.1,1.5-2.9,3.8c-3.3,4.4-5.8,7.7-7.4,10.1c-1.6,2.3-3.4,5-5.2,8.1C35.5,58.5,33,63.5,31.8,67.5z"
	/>
<path class="st0" d="M85,42.5c-1.1,0-3,0.4-5.6,1.1c0.4-0.7,1.1-1.7,1.9-2.8c1.3-1.8,2-3,2-3.6c0-0.3-0.1-0.6-0.4-0.9
	c-0.3-0.3-0.6-0.5-0.9-0.5c-0.4,0-0.9,0.3-1.5,0.9c-0.4,0.4-1.1,1.3-2.1,2.7c-1.9,2.5-3.2,4.5-4,6c-1.1,0.4-1.9,0.6-2.5,0.7
	c-1.5,0.2-2.4,0.4-2.6,0.5c-0.7,0.4-1,0.8-1,1.4c0,0.5,0.3,0.9,0.8,1.2c0.4,0.2,0.8,0.4,1.3,0.4c0.3,0,0.8-0.1,1.4-0.2
	c-1.8,3.6-2.9,5.8-3.3,6.8c-0.5,1.1-0.9,2.2-1.3,3.3c-0.3,0.2-0.7,0.5-1.1,1C62.3,64.8,58.9,67,56,67c-1.3,0-2.3-0.4-2.9-1.3
	c-0.3-0.4-0.4-0.8-0.4-1.3v-0.6c4.8-1.4,8.3-4,10.7-7.8c1.1-1.8,1.7-3.3,1.7-4.6c0-0.8-0.3-1.4-0.9-1.9c-0.5-0.4-1-0.6-1.7-0.6
	c-2.3,0-4.9,1.5-7.9,4.6c-3.7,3.8-5.6,7.7-5.6,11.6c0,1.5,0.3,2.6,1,3.4c1,1.2,2.4,1.8,4.1,1.8c1.7,0,3.6-0.5,5.6-1.6
	s3.9-2.5,5.6-4.2c0.3-0.3,0.5-0.5,0.8-0.8c-0.1,0.7-0.1,1.4-0.1,2c0,1.3,0.2,2.3,0.7,3c0.8,1.1,1.8,1.7,3,1.7c2.3,0,4.7-1.8,7.5-5.4
	c2.3-3,3.4-4.9,3.4-5.8c0-0.2-0.1-0.4-0.3-0.6c-0.2-0.2-0.5-0.3-0.8-0.3c-0.5,0-1,0.4-1.4,1.2c-0.8,1.4-1.8,2.7-2.8,4.1
	c-1.7,2.2-3.1,3.3-4.3,3.3c-0.5,0-0.9-0.2-1.1-0.5s-0.4-0.8-0.4-1.3c0-2.1,0.9-5.2,2.8-9.4c1.3-2.9,2.7-5.6,4.2-7.9
	c0.8-0.3,1.7-0.6,2.6-0.8c3.1-0.9,4.9-1.4,5.3-1.3c1-0.1,1.6-0.2,1.8-0.4c0.4-0.3,0.7-0.7,0.7-1.2C87,43.1,86.3,42.5,85,42.5z
	 M58.5,54c1.1-0.9,2-1.4,2.6-1.4c0.4,0,0.7,0.2,0.7,0.7c0,0.4-0.2,0.9-0.5,1.5c-1,1.6-2.3,3-3.9,4.3c-0.9,0.7-2.2,1.3-3.9,1.9
	C54.8,57.9,56.5,55.6,58.5,54z"/>
<path class="st0" d="M121.4,47.9c-0.7-0.5-1.8-0.8-3.3-0.8c-2.8,0-5.4,0.9-7.9,2.6c-2.6,1.8-3.8,3.9-3.8,6.2c0,1.8,0.8,3.7,2.3,5.9
	c1.1,1.6,1.7,2.8,1.7,3.8c0,0.8-0.2,1.5-0.6,2c-0.5,0.6-1.4,2.2-3.8,2.5c-1.2,0.2-2.7-0.6-3.7-1.2c0,0,0,0-0.1-0.1
	c-1.1-0.6-1.7-1.1-1.9-1.3c-0.8-1-1.2-2.3-1.2-3.7c0-1.4,0.6-3.1,1.7-5.1c1.6-3,2.4-4.9,2.4-5.7c0-0.4-0.2-0.8-0.5-1.1
	c-0.3-0.3-0.6-0.5-0.9-0.5c-0.6,0-1.3,0.4-1.9,1.2c-0.7,0.9-1.2,2-1.7,3.1c-0.8,2.2-1.7,4.1-2.8,5.9c-2.1,3.4-3.8,5.1-5,5.1
	c-0.3,0-0.5-0.1-0.7-0.3s-0.2-0.4-0.2-0.8c0-1.3,0.6-3.1,1.8-5.3c1-1.9,2.5-4.1,4.4-6.4c0.9-1,1.3-1.7,1.3-2.2
	c0-0.3-0.1-0.5-0.4-0.8c-0.3-0.3-0.6-0.4-0.9-0.4c-0.6,0-1.3,0.4-2.3,1.2c-1.2,1-2.4,2.4-3.6,4.2c-2.6,3.9-3.9,7.4-3.9,10.4
	c0,1,0.2,1.9,0.7,2.6c0.6,1,1.5,1.5,2.7,1.5c1.3,0,2.7-0.8,4-2.3c0.8-0.8,1.7-2,2.7-3.4c0.1,1,0.1,1.6,0.2,1.8
	c0.2,1.6,0.8,2.8,1.7,3.7c0.3,0.3,0.6,0.4,0.9,0.7c0,0,0,0,0,0c2.5,2,5.4,2.8,7.6,2.3c1.7-0.3,2.4,0,5-2.7c1.5-1.5,2.4-3,2.4-5.1
	c0-1.4-0.7-3.1-2.1-5.1c-1.2-1.8-1.9-3.4-1.9-4.6c0-1.7,0.9-3.2,2.8-4.4c1.6-1.1,3.1-1.7,4.5-1.7c0.6,0,1,0.1,1.3,0.4
	s0.4,0.6,0.4,1.1c0,0.6-0.3,1.2-0.9,1.8c-0.7,0.6-1.5,1-2.4,1.2c-1.5,0.3-2.3,0.5-2.4,0.6c-0.6,0.3-0.8,0.8-0.8,1.3
	c0,0.9,0.5,1.3,1.5,1.3c0.7,0,1.6-0.2,2.7-0.6c2-0.8,3.4-1.7,4.4-3c1-1.3,1.5-2.6,1.5-4C122.5,49.2,122.1,48.4,121.4,47.9z"/>
<g class="st1">
	<path class="st2" d="M148.1,50.7c-0.6-0.8-1.4-1.2-2.4-1.2c-1.6,0-3.4,0.8-5.4,2.5c1.9-4.3,5-9.7,9.3-16.2c1.4-2.3,2.1-3.5,2.2-3.6
		c0.4-0.8,0.7-1.4,0.7-1.9c0-0.4-0.1-0.8-0.4-1.2c-0.4-0.5-0.9-0.8-1.4-0.8c-0.4,0-0.9,0.4-1.4,1.1c-0.4,0.6-1.7,2.6-3.7,5.9
		c-5,8.3-9.3,16.5-13.1,24.9c-2.7,6-4,9.3-4,9.9c0,0.4,0.1,0.7,0.4,1.1c0.4,0.5,0.8,0.7,1.2,0.7c0.3,0,0.6-0.1,0.7-0.3
		s0.4-0.7,0.8-1.6c0-0.1,0.2-0.3,0.4-0.6c0.4,0.5,1,0.9,1.5,1.2s1.2,0.4,1.9,0.4c1.9,0,3.9-1,6-3.1c2.5-2.5,4.5-5.2,5.8-8.1
		c1.2-2.6,1.8-4.8,1.8-6.6C149,52.3,148.7,51.5,148.1,50.7z M144.5,57.5c-0.6,1.6-1.4,3.2-2.5,4.7c-2.3,3.5-4.4,5.3-6.5,5.3
		c-0.4,0-0.8-0.1-1.1-0.4s-0.7-0.6-1.1-1.1l0.5-0.9c0.5-1.1,1.1-2.4,1.8-3.7c1.5-2.7,3-4.8,4.5-6.3c1.5-1.5,2.8-2.2,3.9-2.2
		c0.4,0,0.8,0.1,1,0.3s0.3,0.6,0.3,1C145.3,55.1,145.1,56.1,144.5,57.5z"/>
	<path class="st2" d="M176.8,50.4c0.9,0,1.9-0.6,2.8-1.7c1-1.2,1.5-2.3,1.5-3.3c0-1.1-0.5-1.6-1.6-1.6c-0.7,0-1.5,0.5-2.5,1.4
		c-1.2,1.3-1.9,2.5-1.9,3.6c0,0.4,0.1,0.8,0.4,1.1C176,50.3,176.3,50.4,176.8,50.4z"/>
	<path class="st2" d="M217.9,29.3c-0.3-0.3-0.6-0.5-1-0.4c-0.7,0-1.4,0.5-2.2,1.5c-0.7,0.9-2.1,3.1-4,6.7c-2.1,3.7-4.2,7.9-6.5,12.9
		c-0.9-0.6-1.8-0.9-2.6-0.9c-3,0-5.9,1.9-8.5,5.6c-1.1,1.5-1.9,3-2.5,4.5c-0.3,0.2-0.5,0.5-0.8,0.9c-1.2,2-2.1,3.5-2.7,4.2
		c-1.3,1.6-2.4,2.4-3.2,2.5c-0.6,0-0.8-0.3-0.9-0.9c0-0.4,0.1-1.2,0.5-2.4c0.3-1.1,0.8-2.6,1.5-4.5c1.6-1.5,2.9-2.8,3.9-3.7
		c3.6-3.5,6.6-6.9,9.2-10.4c5.7-7.8,8.5-13.3,8.4-16.6c0-0.7-0.3-1.3-0.7-1.8c-0.5-0.5-1-0.8-1.7-0.8c-2.2,0-4.9,2.3-8.2,6.8
		c-4.1,5.6-8,12.6-11.9,21.2c-1,2.2-1.8,4.1-2.4,5.9c-2.4,2.3-6.3,7.1-7.1,6.5c-1.1-0.7-1.3-1.6-1.3-3c0-1.4,0.5-3.1,1.5-5.1
		c1.5-3,2.3-4.9,2.3-5.8c0-0.4-0.2-0.8-0.5-1.1c-0.3-0.3-0.6-0.4-1-0.4c-0.6,0-1.3,0.4-1.9,1.3c-0.7,0.9-1.2,2-1.6,3.2
		c-0.7,2.2-1.6,4.2-2.7,6c-2,3.5-3.5,6.3-5.1,5.8c-0.8-0.5-1.4-0.8-1.6-1.1c-0.8-1-1.2-2.2-1.3-3.7c0-1.4,0.5-3.1,1.5-5.1
		c1.5-3,2.3-4.9,2.3-5.8c0-0.4-0.2-0.8-0.5-1.1c-0.3-0.3-0.6-0.4-1-0.4c-0.6,0-1.3,0.4-1.9,1.3c-0.7,0.9-1.2,2-1.6,3.2
		c-0.7,2.2-1.6,4.2-2.7,6c-2,3.5-3.7,5.2-4.9,5.3c-0.3,0-0.5-0.1-0.7-0.2c-0.2-0.2-0.2-0.4-0.2-0.7c0-1.3,0.5-3.1,1.6-5.4
		c1-2,2.4-4.1,4.3-6.5c0.8-1,1.3-1.8,1.2-2.2c0-0.3-0.1-0.5-0.4-0.8c-0.3-0.3-0.6-0.4-0.9-0.4c-0.6,0-1.3,0.4-2.2,1.2
		c-1.1,1-2.3,2.4-3.4,4.3c-2.5,4-3.7,7.5-3.6,10.5c0,1,0.3,1.9,0.7,2.6c0.7,1,1.6,1.5,2.7,1.5c1.3,0,2.7-0.8,4-2.4
		c0.8-0.9,1.6-2,2.6-3.4c0.1,1,0.2,1.6,0.2,1.8c0.3,1.6,0.9,2.8,1.7,3.6c1,0.9,2.1,1.4,3.2,1.3c0.1,0,0.1,0,0.2,0
		c1.3-0.1,2.5-0.9,3.8-2.3c0.8-0.9,1.6-2,2.6-3.4c0.1,1,0.2,1.6,0.2,1.8c0.3,1.6,0.7,2.1,1.6,2.9c1,0.9,2.9,1.3,3.9,0.8
		c1.4-0.8,2.8-2.6,3.9-4c-0.1,0.7-0.2,1.4-0.2,1.9c0,0.8,0.2,1.4,0.6,2c0.6,0.7,1.3,1.1,2.2,1.1c2.1,0,4.3-1.7,6.6-5
		c0.1-0.1,0.2-0.3,0.3-0.4c0,0.1,0,0.2,0,0.2c0,1.2,0.3,2.3,0.8,3.3c0.8,1.4,1.8,2.2,3.1,2.2c2.2,0,4.5-2.3,7-6.7
		c0.1,1.4,0.2,2.4,0.3,2.9c0.2,1.2,0.8,2.3,1.7,3.2c0.7,0.6,1.3,1,1.8,1c0.4,0,0.8-0.2,1.2-0.6c0.4-0.4,0.5-0.8,0.5-1.3
		c0-0.4-0.1-0.6-0.2-0.7c-0.8-0.6-1.2-0.9-1.3-1.1c-0.5-0.8-0.8-1.8-0.8-3.2c0-3.3,1.6-8.2,4.8-14.8c2.8-5.7,5.8-11.3,9.2-16.8
		c0.8-1.3,1.2-2.2,1.2-2.7C218.3,29.9,218.2,29.6,217.9,29.3z M195.2,37.8c3.3-5.2,5.6-7.8,6.9-7.9c0.4,0,0.7,0.2,0.7,0.8
		c0,1.1-0.9,3.3-2.8,6.6c-3.7,6.5-7.9,11.8-12.7,16.1C189.8,47.2,192.5,42,195.2,37.8z M202.7,53.3l-0.3,0.7c-0.4,1-0.9,2-1.3,3
		c-1.3,2.9-2.7,5.4-4.3,7.5c-1.2,1.6-2.1,2.4-3,2.4c-0.6,0-1-0.3-1.3-0.9c-0.1-0.3-0.2-0.6-0.2-1c0-2.9,1.1-6,3.4-9.1
		c1.7-2.4,3.6-3.7,5.6-3.7c0.5,0,1,0.2,1.7,0.6L202.7,53.3z"/>
</g>
<path class="st0" d="M295.4,54.6c-0.2-0.2-0.4-0.3-0.6-0.3c-0.3,0-0.6,0.1-1.1,0.4c-2.5,1.7-4.2,2.5-5.2,2.5c-0.6,0-0.9-0.3-0.9-0.8
	c0-1,1.2-2.4,3.6-4.3c0.9-0.7,1.3-1.3,1.3-1.7c0-0.2-0.1-0.5-0.3-0.8c-0.4-0.5-0.7-0.8-1.1-0.8c-0.2,0-0.6,0.2-1.2,0.5
	c-1.2,0.7-2.4,1.5-3.4,2.4c-3,2.3-5.6,4.7-7.9,7.2c0.6-1.4,1.4-2.7,2.4-4.1c1.1-1.5,1.8-2.2,1.9-2.4c0.5-0.6,0.7-1.1,0.7-1.5
	s-0.2-0.6-0.5-0.9c-0.3-0.2-0.5-0.3-0.8-0.3c-0.9,0-2.1,0.9-3.4,2.6c-2.2,2.8-4.3,6.8-6.3,12c-0.7,1.8-1.2,3.2-1.6,4.3
	c-0.8-0.5-1.3-0.8-1.5-1.1c-0.8-1-1.2-2.3-1.2-3.7c0-1.4,0.6-3.1,1.7-5.1c1.6-3,2.4-4.9,2.4-5.7c0-0.4-0.2-0.8-0.5-1.1
	c-0.3-0.3-0.6-0.5-0.9-0.5c-0.6,0-1.3,0.4-1.9,1.2c-0.7,0.9-1.2,2-1.7,3.1c-0.8,2.2-1.7,4.1-2.8,5.9c-2.1,3.4-3.8,5.1-5,5.1
	c-0.3,0-0.5-0.1-0.7-0.3s-0.2-0.4-0.2-0.8c0-1.3,0.6-3.1,1.8-5.3c1-1.9,2.5-4.1,4.4-6.4c0.9-1,1.3-1.7,1.3-2.2
	c0-0.3-0.1-0.5-0.4-0.8c-0.3-0.3-0.6-0.4-0.9-0.4c-0.6,0-1.3,0.4-2.3,1.2c-0.6,0.5-1.1,1-1.7,1.7c-0.9,0.5-2.1,1.1-3.5,1.8
	c-0.4,0.2-0.7,0.3-1.1,0.5c0.6-1.7,0.9-3.2,0.9-4.6c0-2.3-1-3.5-2.9-3.5c-1.2,0-2.6,0.5-4.1,1.6c-2.6,1.8-4.9,4.3-6.8,7.6
	c-0.1,0.2-0.3,0.5-0.4,0.7c-0.4,0.1-0.8,0.5-1.2,1.4c-0.5,1-1.8,2.6-3.9,4.7c-1.2,1.3-2.6,2.3-4.1,3.2c0.8-2.1,1.9-4.4,3.4-7
	c0.9-1.7,2-3.5,3.1-5.4c0.9-1.6,1.4-2.7,1.4-3.4c0-0.4-0.1-0.8-0.4-1.1c-0.3-0.3-0.6-0.5-1-0.5c-0.6,0-1.3,0.4-2,1.2
	c-0.3,0.3-1.1,1.4-2.4,3.1c-1.5,2-2.3,3.1-2.5,3.3c-0.9,1.1-2.2,2.5-3.8,4.1c-2.6,2.6-4.3,3.8-5.3,3.8c-0.5,0-0.7-0.2-0.7-0.7
	c0-0.8,0.6-2.2,1.9-4c1.1-1.6,2.4-3.1,3.7-4.5c1.3-1.3,2-2.2,2.3-2.6s0.4-0.8,0.4-1.4c0-0.4-0.1-0.7-0.4-0.9c-0.3-0.3-0.6-0.5-1-0.5
	c-1.4,0-3.6,2.1-6.6,6.4c-3,4.2-4.5,7.6-4.5,10.1c0,0.7,0.2,1.3,0.5,1.8c0.5,0.6,1.1,0.9,1.9,0.9c1.6,0,3.7-1.2,6.2-3.5
	c1.2-1.2,2.9-3,5-5.5c-0.7,1.5-1.6,3.3-2.5,5.2c-0.9,1.8-1.5,3.2-1.9,4.3c-0.7,0.4-1.6,1-2.8,1.7c-3,1.7-5.2,3.1-6.7,4.2
	c-5.1,3.8-7.7,7.6-7.7,11.2c0,1.3,0.3,2.4,1,3.2c0.9,1.1,2,1.7,3.4,1.7c3.5,0,6.9-2.9,10.2-8.6c1.8-3.1,3.6-7,5.6-11.8
	c3.4-1.9,6.4-4.2,8.8-6.9c-0.1,0.7-0.2,1.4-0.2,2c0,0.9,0.2,1.7,0.5,2.3c0.6,1.3,1.6,1.9,3,1.9c2.9,0,6-2.6,9.1-7.8
	c0.8-1.4,1.6-2.7,2.2-4c1-0.3,2-0.7,2.9-1.2c-1.8,3.2-2.7,6-2.7,8.6c0,1,0.2,1.9,0.7,2.6c0.6,1,1.5,1.5,2.7,1.5c1.3,0,2.7-0.8,4-2.3
	c0.8-0.8,1.7-2,2.7-3.4c0.1,1,0.1,1.6,0.2,1.8c0.2,1.6,0.8,2.8,1.7,3.7c1,0.9,1.9,1.3,3,1.5c0.4,0.1,1.1,0.1,1.6,0
	c0.8-0.2,1.5-0.5,2-1.6c1.4-2.9,2.9-5.3,4.3-7.3c2.5-3.2,4.7-5.4,6.5-6.8c-0.5,0.8-0.7,1.4-0.7,2c0,0.8,0.3,1.4,0.8,1.8
	c0.6,0.4,1.3,0.6,2.1,0.6c1.9,0,3.8-0.8,5.9-2.3c2-1.5,3-2.5,3-3.2C295.8,55,295.7,54.8,295.4,54.6z M225.7,76.8
	c-1.6,3.4-2.5,5.5-2.9,6.1c-2.1,3.7-4.1,5.5-5.8,5.5c-0.6,0-1-0.2-1.4-0.6c-0.3-0.3-0.4-0.7-0.4-1.1c0-2.1,1.3-4.3,3.9-6.8
	c2.6-2.3,5.1-4.1,7.6-5.4C226.4,75.3,226.1,76.1,225.7,76.8z M250.9,61.1c0,0-0.1,0.4-0.5,1.2s-0.8,1.5-1.4,2.2
	c-1.3,1.7-2.5,2.5-3.6,2.5c-0.5,0-0.9-0.2-1.2-0.6c-0.2-0.3-0.3-0.7-0.3-1.1c0-1.5,0.6-3.4,1.7-5.7c1-2,2.4-3.9,4.3-5.8
	c1.5-1.5,2.6-2.2,3.3-2.2c0.4,0,0.7,0.2,0.9,0.5c0.1,0.2,0.2,0.4,0.2,0.6c0,1.5-1.1,3.4-3.2,5.7c-0.8,0.8-1.1,1.4-1.1,1.5
	C250,60.3,250.3,60.6,250.9,61.1z"/>
<path class="st0" d="M396.6,52c0-0.4-0.2-0.8-0.5-1.1c-0.3-0.3-0.7-0.4-1.1-0.4c-2,0-5.8,2.8-11.3,8.3c0.5-1.1,1.4-2.5,2.6-4.1
	c0.8-1,1.2-1.7,1.2-2.2c0-0.3-0.1-0.6-0.4-0.8c-0.3-0.3-0.6-0.4-1-0.4c-0.8,0-2.3,0.9-4.6,2.6c-1.5,1.2-3.2,2.8-5.2,4.9
	c0.5-1.2,1.5-3,3-5.5c0.9-1.3,1.3-2.1,1.3-2.5c0-0.8-0.4-1.1-1.1-1.1c-0.8,0-1.9,1.1-3.3,3.2c-2,3-3.9,6.5-5.5,10.3
	c-0.9,2.2-1.6,3.9-1.9,5.3c-0.1-0.1-0.2-0.1-0.2-0.2c-0.6-0.6-0.9-1.4-0.9-2.4c0-1.2,0.4-2.8,1.1-4.9c0.7-1.9,1.4-3.4,2-4.6
	c0.7-1.1,1-1.9,1-2.4c0-0.4-0.2-0.8-0.5-1.3c0.4-0.9,0.6-1.6,0.6-2.1c0-0.7-0.3-1.3-0.8-1.8c-0.7-0.6-1.5-0.9-2.5-0.9
	c-1.6,0-3.2,0.6-4.9,1.8c-2.6,1.9-4.8,4.6-6.6,8.1c-0.3,0.5-0.5,1-0.7,1.4c-0.4,0.1-0.9,0.5-1.4,1.1c-3.8,4.5-7.2,6.7-10.2,6.7
	c-1.3,0-2.3-0.4-2.9-1.3c-0.3-0.4-0.4-0.8-0.4-1.3v-0.6c4.8-1.4,8.3-4,10.7-7.8c1.1-1.8,1.7-3.3,1.7-4.6c0-0.8-0.3-1.4-0.9-1.9
	c-0.5-0.4-1-0.6-1.7-0.6c-2.3,0-4.9,1.5-7.9,4.6c-0.3,0.3-0.5,0.6-0.8,0.8c-0.1-0.1-0.2-0.1-0.3-0.1c-0.3,0-0.6,0.1-1.1,0.4
	c-2.5,1.7-4.2,2.5-5.2,2.5c-0.6,0-0.9-0.3-0.9-0.8c0-1,1.2-2.4,3.6-4.3c0.9-0.7,1.3-1.3,1.3-1.7c0-0.2-0.1-0.5-0.3-0.8
	c-0.4-0.5-0.7-0.8-1.1-0.8c-0.2,0-0.6,0.2-1.2,0.5c-1.2,0.7-2.4,1.5-3.4,2.4c-3,2.3-5.6,4.7-7.9,7.2c0.6-1.4,1.4-2.7,2.4-4.1
	c1.1-1.5,1.8-2.2,1.9-2.4c0.5-0.6,0.7-1.1,0.7-1.5s-0.2-0.6-0.5-0.9c-0.3-0.2-0.5-0.3-0.8-0.3c-0.9,0-2.1,0.9-3.4,2.6
	c-2.2,2.8-4.3,6.8-6.3,12c-0.8,2.1-1.4,3.7-1.7,4.9c-0.3-0.2-0.4-0.4-0.5-0.5c-0.5-0.8-0.8-1.8-0.8-3.2c0-3.3,1.6-8.2,4.9-14.8
	c2.8-5.6,6-11.2,9.4-16.7c0.8-1.3,1.2-2.2,1.2-2.7c0-0.4-0.1-0.7-0.4-1c-0.3-0.3-0.6-0.5-1-0.5c-0.7,0-1.5,0.5-2.3,1.5
	c-0.7,0.9-2.1,3.1-4.1,6.6c-2.1,3.6-4.3,7.9-6.6,12.8c-0.9-0.6-1.8-0.9-2.6-0.9c-3,0-5.9,1.8-8.5,5.5c-2.7,3.7-4,7.4-4,11
	c0,1.2,0.3,2.3,0.8,3.3c0.8,1.5,1.8,2.2,3.1,2.2c2.2,0,4.6-2.2,7-6.6c0.1,1.4,0.2,2.4,0.2,2.9c0.2,1.2,0.8,2.3,1.7,3.2
	c0.7,0.7,1.3,1,1.8,1c2.8,0,3.2-1,3.8-2.1c1.4-2.9,2.9-5.3,4.3-7.3c2.5-3.2,4.7-5.4,6.5-6.8c-0.5,0.8-0.7,1.4-0.7,2
	c0,0.8,0.3,1.4,0.8,1.8c0.6,0.4,1.3,0.6,2.1,0.6c1.6,0,3.2-0.6,5-1.7c-1,2-1.5,4-1.5,6.1c0,1.5,0.3,2.6,1,3.4c1,1.2,2.4,1.8,4.1,1.8
	c1.7,0,3.6-0.5,5.6-1.6s3.9-2.5,5.6-4.2c0.2-0.2,0.4-0.4,0.5-0.5c-0.1,0.8-0.2,1.5-0.2,2.2c0,1.1,0.2,2,0.7,2.7
	c0.7,1.2,1.7,1.8,3,1.8c1.5,0,2.9-0.9,4.4-2.7c0.8-0.9,1.5-2.1,2.3-3.4c-0.1,1.1-0.1,1.9-0.1,2.3c0,1.4,0.4,2.5,1.1,3.4
	c0.9,1.1,2,1.7,3.3,1.7c0.1,0,0.3,0,0.4,0c0.1,0,0.1,0,0.2,0c0.8,0,1.5-0.6,2-1.8c2-5.3,5-9.5,9-12.6c-1.1,1.9-2,3.7-2.8,5.4
	c-1.3,3-2,5-2,5.9c0,0.9,0.4,1.3,1.2,1.3c0.7,0,1.4-0.5,1.9-1.6c1.1-2.2,2.4-4.2,3.8-6c2.1-2.6,4.1-4.7,6.1-6.2
	c-1,1.3-1.7,2.3-2.1,3.1c-1.2,2.2-1.8,4.3-1.8,6.5c0,1.6,0.4,3,1.2,4.1c0.7,1,1.4,1.5,2.1,1.5c0.4,0,0.8-0.2,1.2-0.6
	c0.3-0.3,0.5-0.7,0.5-1.1c0-0.3-0.1-0.6-0.3-0.8l-0.9-1.2c-0.4-0.5-0.6-1.4-0.6-2.6c0-2.9,2.2-6.7,6.6-11.2
	C396.1,53.5,396.6,52.6,396.6,52z M317,54.3l-0.3,0.7c-0.4,1-0.9,2-1.4,3c-1.3,2.9-2.8,5.4-4.4,7.5c-1.2,1.6-2.2,2.4-3,2.4
	c-0.6,0-1-0.3-1.3-0.9c-0.1-0.3-0.2-0.6-0.2-1c0-2.9,1.2-6,3.5-9.1c1.8-2.4,3.6-3.6,5.6-3.6c0.5,0,1,0.2,1.7,0.6L317,54.3z
	 M347.6,54c1.1-0.9,2-1.4,2.6-1.4c0.4,0,0.7,0.2,0.7,0.7c0,0.4-0.2,0.9-0.5,1.5c-1,1.6-2.3,3-3.9,4.3c-0.9,0.7-2.2,1.3-3.9,1.9
	C343.9,57.9,345.6,55.6,347.6,54z M366.7,57.4c-1.2,2.6-2.3,4.5-3.1,5.8c-1.5,2.4-2.8,3.6-3.9,3.6c-0.4,0-0.8-0.2-1-0.5
	s-0.3-0.8-0.3-1.3c0-2.4,1.1-5.3,3.4-8.8c2.1-3.1,4-4.7,5.8-4.7c0.4,0,0.7,0.1,1.1,0.4s0.6,0.6,0.9,1.1c-0.5,0.4-0.8,0.7-1,1
	C368.1,54.7,367.5,55.8,366.7,57.4z"/>
<g class="st1">
	<g>
		<path class="st2" d="M399.4,82c-0.6-0.1-1-0.3-1.4-0.6c-0.2-0.2-0.3-0.4-0.2-0.7c0.2-0.7,0.6-1.4,1.4-2.3c0.8-0.9,1.7-1.6,2.7-1.5
			c1.1,0,1.6,0.7,1.5,1.8c-0.1,1.1-0.6,2-1.5,2.7C401.2,82,400.3,82.1,399.4,82z"/>
	</g>
</g>
<g class="st1">
	<path class="st2" d="M411.4,39.3c0.9-2.3,3.5-2.8,2.6-0.2c-4.9,14.3-9.2,21.7-10.4,31c-0.2,1.6-3.2,0.4-3-1.1
		C402,59.8,406.4,52.6,411.4,39.3z"/>
</g>
</svg>
