<?xml version="1.0" encoding="utf-8"?>
<!-- Generator: Adobe Illustrator 24.0.2, SVG Export Plug-In . SVG Version: 6.00 Build 0)  -->
<svg version="1.1" id="Capa_1" xmlns="http://www.w3.org/2000/svg" xmlns:xlink="http://www.w3.org/1999/xlink" x="0px" y="0px"
	 viewBox="0 0 444 109" style="enable-background:new 0 0 444 109;" xml:space="preserve">
<style type="text/css">
	.st0{opacity:0.5;}
	.st1{opacity:0.65;fill:#494949;enable-background:new    ;}
	.st2{opacity:0.65;}
	.st3{fill:#494949;}
	.st4{opacity:0.65;enable-background:new    ;}
	.st5{fill:#FCFCFC;}
	.st6{fill:#686868;}
</style>
<g class="st0">
	<path class="st1" d="M35.8,64.3c0.6-0.2,1.1-0.3,1.4-0.4c5.4-1.7,9.3-2.5,11.6-2.5c1.8,0,2.6,0.7,2.6,2c0,0.5-0.2,1-0.6,1.4
		c-0.4,0.4-0.8,0.6-1.3,0.6c-0.2,0-0.6,0-1-0.1s-0.7-0.1-0.9-0.1c-1.4,0-3.2,0.3-5.4,0.9c-0.8,0.3-2.4,0.9-4.7,2
		c-1.6,0.7-2.9,1.1-3.9,1.1c-0.7,0-1.3-0.3-1.8-1c-0.4-0.6-0.7-1.3-0.7-2c0-0.9,0.5-2.3,1.4-4.4c2.9-6.4,6.1-12.1,9.4-17.2
		c4.8-7.3,8.5-12.6,11.2-16c0.7-0.9,1.5-1.8,2.2-2.8c1.1-1.5,2.1-2.3,3-2.3c0.4,0,0.8,0.2,1.1,0.5s0.5,0.7,0.5,1
		c0,0.5-0.4,1.3-1.2,2.4c-0.2,0.2-1.1,1.5-2.9,3.8c-3.3,4.4-5.8,7.7-7.4,10.1c-1.6,2.3-3.4,5-5.2,8.1C39.5,55.3,37,60.3,35.8,64.3z"
		/>
	<path class="st1" d="M89,39.3c-1.1,0-3,0.4-5.6,1.1c0.4-0.7,1.1-1.7,1.9-2.8c1.3-1.8,2-3,2-3.6c0-0.3-0.1-0.6-0.4-0.9
		c-0.3-0.3-0.6-0.5-0.9-0.5c-0.4,0-0.9,0.3-1.5,0.9c-0.4,0.4-1.1,1.3-2.1,2.7c-1.9,2.5-3.2,4.5-4,6c-1.1,0.4-1.9,0.6-2.5,0.7
		c-1.5,0.2-2.4,0.4-2.6,0.5c-0.7,0.4-1,0.8-1,1.4c0,0.5,0.3,0.9,0.8,1.2c0.4,0.2,0.8,0.4,1.3,0.4c0.3,0,0.8-0.1,1.4-0.2
		C74,49.8,72.9,52,72.5,53c-0.5,1.1-0.9,2.2-1.3,3.3c-0.3,0.2-0.7,0.5-1.1,1c-3.8,4.3-7.2,6.5-10.1,6.5c-1.3,0-2.3-0.4-2.9-1.3
		c-0.3-0.4-0.4-0.8-0.4-1.3v-0.6c4.8-1.4,8.3-4,10.7-7.8c1.1-1.8,1.7-3.3,1.7-4.6c0-0.8-0.3-1.4-0.9-1.9c-0.5-0.4-1-0.6-1.7-0.6
		c-2.3,0-4.9,1.5-7.9,4.6C54.9,54.1,53,58,53,61.9c0,1.5,0.3,2.6,1,3.4c1,1.2,2.4,1.8,4.1,1.8c1.7,0,3.6-0.5,5.6-1.6
		c2-1.1,3.9-2.5,5.6-4.2c0.3-0.3,0.5-0.5,0.8-0.8c-0.1,0.7-0.1,1.4-0.1,2c0,1.3,0.2,2.3,0.7,3c0.8,1.1,1.8,1.7,3,1.7
		c2.3,0,4.7-1.8,7.5-5.4c2.3-3,3.4-4.9,3.4-5.8c0-0.2-0.1-0.4-0.3-0.6c-0.2-0.2-0.5-0.3-0.8-0.3c-0.5,0-1,0.4-1.4,1.2
		c-0.8,1.4-1.8,2.7-2.8,4.1c-1.7,2.2-3.1,3.3-4.3,3.3c-0.5,0-0.9-0.2-1.1-0.5s-0.4-0.8-0.4-1.3c0-2.1,0.9-5.2,2.8-9.4
		c1.3-2.9,2.7-5.6,4.2-7.9c0.8-0.3,1.7-0.6,2.6-0.8c3.1-0.9,4.9-1.4,5.3-1.3c1-0.1,1.6-0.2,1.8-0.4c0.4-0.3,0.7-0.7,0.7-1.2
		C91,39.9,90.3,39.3,89,39.3z M62.5,50.8c1.1-0.9,2-1.4,2.6-1.4c0.4,0,0.7,0.2,0.7,0.7c0,0.4-0.2,0.9-0.5,1.5c-1,1.6-2.3,3-3.9,4.3
		c-0.9,0.7-2.2,1.3-3.9,1.9C58.8,54.7,60.5,52.4,62.5,50.8z"/>
	<path class="st1" d="M125.4,44.7c-0.7-0.5-1.8-0.8-3.3-0.8c-2.8,0-5.4,0.9-7.9,2.6c-2.6,1.8-3.8,3.9-3.8,6.2c0,1.8,0.8,3.7,2.3,5.9
		c1.1,1.6,1.7,2.8,1.7,3.8c0,0.8-0.2,1.5-0.6,2c-0.5,0.6-1.4,2.2-3.8,2.5c-1.2,0.2-2.7-0.6-3.7-1.2c0,0,0,0-0.1-0.1
		c-1.1-0.6-1.7-1.1-1.9-1.3c-0.8-1-1.2-2.3-1.2-3.7c0-1.4,0.6-3.1,1.7-5.1c1.6-3,2.4-4.9,2.4-5.7c0-0.4-0.2-0.8-0.5-1.1
		s-0.6-0.5-0.9-0.5c-0.6,0-1.3,0.4-1.9,1.2c-0.7,0.9-1.2,2-1.7,3.1c-0.8,2.2-1.7,4.1-2.8,5.9c-2.1,3.4-3.8,5.1-5,5.1
		c-0.3,0-0.5-0.1-0.7-0.3s-0.2-0.4-0.2-0.8c0-1.3,0.6-3.1,1.8-5.3c1-1.9,2.5-4.1,4.4-6.4c0.9-1,1.3-1.7,1.3-2.2
		c0-0.3-0.1-0.5-0.4-0.8s-0.6-0.4-0.9-0.4c-0.6,0-1.3,0.4-2.3,1.2c-1.2,1-2.4,2.4-3.6,4.2c-2.6,3.9-3.9,7.4-3.9,10.4
		c0,1,0.2,1.9,0.7,2.6c0.6,1,1.5,1.5,2.7,1.5c1.3,0,2.7-0.8,4-2.3c0.8-0.8,1.7-2,2.7-3.4c0.1,1,0.1,1.6,0.2,1.8
		c0.2,1.6,0.8,2.8,1.7,3.7c0.3,0.3,0.6,0.4,0.9,0.7l0,0c2.5,2,5.4,2.8,7.6,2.3c1.7-0.3,2.4,0,5-2.7c1.5-1.5,2.4-3,2.4-5.1
		c0-1.4-0.7-3.1-2.1-5.1c-1.2-1.8-1.9-3.4-1.9-4.6c0-1.7,0.9-3.2,2.8-4.4c1.6-1.1,3.1-1.7,4.5-1.7c0.6,0,1,0.1,1.3,0.4
		s0.4,0.6,0.4,1.1c0,0.6-0.3,1.2-0.9,1.8c-0.7,0.6-1.5,1-2.4,1.2c-1.5,0.3-2.3,0.5-2.4,0.6c-0.6,0.3-0.8,0.8-0.8,1.3
		c0,0.9,0.5,1.3,1.5,1.3c0.7,0,1.6-0.2,2.7-0.6c2-0.8,3.4-1.7,4.4-3s1.5-2.6,1.5-4C126.5,46,126.1,45.2,125.4,44.7z"/>
	<g class="st2">
		<path class="st3" d="M152.1,47.5c-0.6-0.8-1.4-1.2-2.4-1.2c-1.6,0-3.4,0.8-5.4,2.5c1.9-4.3,5-9.7,9.3-16.2
			c1.4-2.3,2.1-3.5,2.2-3.6c0.4-0.8,0.7-1.4,0.7-1.9c0-0.4-0.1-0.8-0.4-1.2c-0.4-0.5-0.9-0.8-1.4-0.8c-0.4,0-0.9,0.4-1.4,1.1
			c-0.4,0.6-1.7,2.6-3.7,5.9c-5,8.3-9.3,16.5-13.1,24.9c-2.7,6-4,9.3-4,9.9c0,0.4,0.1,0.7,0.4,1.1c0.4,0.5,0.8,0.7,1.2,0.7
			c0.3,0,0.6-0.1,0.7-0.3s0.4-0.7,0.8-1.6c0-0.1,0.2-0.3,0.4-0.6c0.4,0.5,1,0.9,1.5,1.2s1.2,0.4,1.9,0.4c1.9,0,3.9-1,6-3.1
			c2.5-2.5,4.5-5.2,5.8-8.1c1.2-2.6,1.8-4.8,1.8-6.6C153,49.1,152.7,48.3,152.1,47.5z M148.5,54.3c-0.6,1.6-1.4,3.2-2.5,4.7
			c-2.3,3.5-4.4,5.3-6.5,5.3c-0.4,0-0.8-0.1-1.1-0.4c-0.3-0.3-0.7-0.6-1.1-1.1l0.5-0.9c0.5-1.1,1.1-2.4,1.8-3.7
			c1.5-2.7,3-4.8,4.5-6.3s2.8-2.2,3.9-2.2c0.4,0,0.8,0.1,1,0.3s0.3,0.6,0.3,1C149.3,51.9,149.1,52.9,148.5,54.3z"/>
		<path class="st3" d="M180.8,47.2c0.9,0,1.9-0.6,2.8-1.7c1-1.2,1.5-2.3,1.5-3.3c0-1.1-0.5-1.6-1.6-1.6c-0.7,0-1.5,0.5-2.5,1.4
			c-1.2,1.3-1.9,2.5-1.9,3.6c0,0.4,0.1,0.8,0.4,1.1C180,47.1,180.3,47.2,180.8,47.2z"/>
		<path class="st3" d="M221.9,26.1c-0.3-0.3-0.6-0.5-1-0.4c-0.7,0-1.4,0.5-2.2,1.5c-0.7,0.9-2.1,3.1-4,6.7
			c-2.1,3.7-4.2,7.9-6.5,12.9c-0.9-0.6-1.8-0.9-2.6-0.9c-3,0-5.9,1.9-8.5,5.6c-1.1,1.5-1.9,3-2.5,4.5c-0.3,0.2-0.5,0.5-0.8,0.9
			c-1.2,2-2.1,3.5-2.7,4.2c-1.3,1.6-2.4,2.4-3.2,2.5c-0.6,0-0.8-0.3-0.9-0.9c0-0.4,0.1-1.2,0.5-2.4c0.3-1.1,0.8-2.6,1.5-4.5
			c1.6-1.5,2.9-2.8,3.9-3.7c3.6-3.5,6.6-6.9,9.2-10.4c5.7-7.8,8.5-13.3,8.4-16.6c0-0.7-0.3-1.3-0.7-1.8c-0.5-0.5-1-0.8-1.7-0.8
			c-2.2,0-4.9,2.3-8.2,6.8c-4.1,5.6-8,12.6-11.9,21.2c-1,2.2-1.8,4.1-2.4,5.9c-2.4,2.3-6.3,7.1-7.1,6.5c-1.1-0.7-1.3-1.6-1.3-3
			s0.5-3.1,1.5-5.1c1.5-3,2.3-4.9,2.3-5.8c0-0.4-0.2-0.8-0.5-1.1s-0.6-0.4-1-0.4c-0.6,0-1.3,0.4-1.9,1.3c-0.7,0.9-1.2,2-1.6,3.2
			c-0.7,2.2-1.6,4.2-2.7,6c-2,3.5-3.5,6.3-5.1,5.8c-0.8-0.5-1.4-0.8-1.6-1.1c-0.8-1-1.2-2.2-1.3-3.7c0-1.4,0.5-3.1,1.5-5.1
			c1.5-3,2.3-4.9,2.3-5.8c0-0.4-0.2-0.8-0.5-1.1s-0.6-0.4-1-0.4c-0.6,0-1.3,0.4-1.9,1.3c-0.7,0.9-1.2,2-1.6,3.2
			c-0.7,2.2-1.6,4.2-2.7,6c-2,3.5-3.7,5.2-4.9,5.3c-0.3,0-0.5-0.1-0.7-0.2c-0.2-0.2-0.2-0.4-0.2-0.7c0-1.3,0.5-3.1,1.6-5.4
			c1-2,2.4-4.1,4.3-6.5c0.8-1,1.3-1.8,1.2-2.2c0-0.3-0.1-0.5-0.4-0.8c-0.3-0.3-0.6-0.4-0.9-0.4c-0.6,0-1.3,0.4-2.2,1.2
			c-1.1,1-2.3,2.4-3.4,4.3c-2.5,4-3.7,7.5-3.6,10.5c0,1,0.3,1.9,0.7,2.6c0.7,1,1.6,1.5,2.7,1.5c1.3,0,2.7-0.8,4-2.4
			c0.8-0.9,1.6-2,2.6-3.4c0.1,1,0.2,1.6,0.2,1.8c0.3,1.6,0.9,2.8,1.7,3.6c1,0.9,2.1,1.4,3.2,1.3c0.1,0,0.1,0,0.2,0
			c1.3-0.1,2.5-0.9,3.8-2.3c0.8-0.9,1.6-2,2.6-3.4c0.1,1,0.2,1.6,0.2,1.8c0.3,1.6,0.7,2.1,1.6,2.9c1,0.9,2.9,1.3,3.9,0.8
			c1.4-0.8,2.8-2.6,3.9-4c-0.1,0.7-0.2,1.4-0.2,1.9c0,0.8,0.2,1.4,0.6,2c0.6,0.7,1.3,1.1,2.2,1.1c2.1,0,4.3-1.7,6.6-5
			c0.1-0.1,0.2-0.3,0.3-0.4c0,0.1,0,0.2,0,0.2c0,1.2,0.3,2.3,0.8,3.3c0.8,1.4,1.8,2.2,3.1,2.2c2.2,0,4.5-2.3,7-6.7
			c0.1,1.4,0.2,2.4,0.3,2.9c0.2,1.2,0.8,2.3,1.7,3.2c0.7,0.6,1.3,1,1.8,1c0.4,0,0.8-0.2,1.2-0.6s0.5-0.8,0.5-1.3
			c0-0.4-0.1-0.6-0.2-0.7c-0.8-0.6-1.2-0.9-1.3-1.1c-0.5-0.8-0.8-1.8-0.8-3.2c0-3.3,1.6-8.2,4.8-14.8c2.8-5.7,5.8-11.3,9.2-16.8
			c0.8-1.3,1.2-2.2,1.2-2.7C222.3,26.7,222.2,26.4,221.9,26.1z M199.2,34.6c3.3-5.2,5.6-7.8,6.9-7.9c0.4,0,0.7,0.2,0.7,0.8
			c0,1.1-0.9,3.3-2.8,6.6c-3.7,6.5-7.9,11.8-12.7,16.1C193.8,44,196.5,38.8,199.2,34.6z M206.7,50.1l-0.3,0.7c-0.4,1-0.9,2-1.3,3
			c-1.3,2.9-2.7,5.4-4.3,7.5c-1.2,1.6-2.1,2.4-3,2.4c-0.6,0-1-0.3-1.3-0.9c-0.1-0.3-0.2-0.6-0.2-1c0-2.9,1.1-6,3.4-9.1
			c1.7-2.4,3.6-3.7,5.6-3.7c0.5,0,1,0.2,1.7,0.6L206.7,50.1z"/>
	</g>
	<path class="st1" d="M299.4,51.4c-0.2-0.2-0.4-0.3-0.6-0.3c-0.3,0-0.6,0.1-1.1,0.4c-2.5,1.7-4.2,2.5-5.2,2.5
		c-0.6,0-0.9-0.3-0.9-0.8c0-1,1.2-2.4,3.6-4.3c0.9-0.7,1.3-1.3,1.3-1.7c0-0.2-0.1-0.5-0.3-0.8c-0.4-0.5-0.7-0.8-1.1-0.8
		c-0.2,0-0.6,0.2-1.2,0.5c-1.2,0.7-2.4,1.5-3.4,2.4c-3,2.3-5.6,4.7-7.9,7.2c0.6-1.4,1.4-2.7,2.4-4.1c1.1-1.5,1.8-2.2,1.9-2.4
		c0.5-0.6,0.7-1.1,0.7-1.5s-0.2-0.6-0.5-0.9c-0.3-0.2-0.5-0.3-0.8-0.3c-0.9,0-2.1,0.9-3.4,2.6c-2.2,2.8-4.3,6.8-6.3,12
		c-0.7,1.8-1.2,3.2-1.6,4.3c-0.8-0.5-1.3-0.8-1.5-1.1c-0.8-1-1.2-2.3-1.2-3.7c0-1.4,0.6-3.1,1.7-5.1c1.6-3,2.4-4.9,2.4-5.7
		c0-0.4-0.2-0.8-0.5-1.1s-0.6-0.5-0.9-0.5c-0.6,0-1.3,0.4-1.9,1.2c-0.7,0.9-1.2,2-1.7,3.1c-0.8,2.2-1.7,4.1-2.8,5.9
		c-2.1,3.4-3.8,5.1-5,5.1c-0.3,0-0.5-0.1-0.7-0.3s-0.2-0.4-0.2-0.8c0-1.3,0.6-3.1,1.8-5.3c1-1.9,2.5-4.1,4.4-6.4
		c0.9-1,1.3-1.7,1.3-2.2c0-0.3-0.1-0.5-0.4-0.8s-0.6-0.4-0.9-0.4c-0.6,0-1.3,0.4-2.3,1.2c-0.6,0.5-1.1,1-1.7,1.7
		c-0.9,0.5-2.1,1.1-3.5,1.8c-0.4,0.2-0.7,0.3-1.1,0.5c0.6-1.7,0.9-3.2,0.9-4.6c0-2.3-1-3.5-2.9-3.5c-1.2,0-2.6,0.5-4.1,1.6
		c-2.6,1.8-4.9,4.3-6.8,7.6c-0.1,0.2-0.3,0.5-0.4,0.7c-0.4,0.1-0.8,0.5-1.2,1.4c-0.5,1-1.8,2.6-3.9,4.7c-1.2,1.3-2.6,2.3-4.1,3.2
		c0.8-2.1,1.9-4.4,3.4-7c0.9-1.7,2-3.5,3.1-5.4c0.9-1.6,1.4-2.7,1.4-3.4c0-0.4-0.1-0.8-0.4-1.1c-0.3-0.3-0.6-0.5-1-0.5
		c-0.6,0-1.3,0.4-2,1.2c-0.3,0.3-1.1,1.4-2.4,3.1c-1.5,2-2.3,3.1-2.5,3.3c-0.9,1.1-2.2,2.5-3.8,4.1c-2.6,2.6-4.3,3.8-5.3,3.8
		c-0.5,0-0.7-0.2-0.7-0.7c0-0.8,0.6-2.2,1.9-4c1.1-1.6,2.4-3.1,3.7-4.5c1.3-1.3,2-2.2,2.3-2.6s0.4-0.8,0.4-1.4
		c0-0.4-0.1-0.7-0.4-0.9c-0.3-0.3-0.6-0.5-1-0.5c-1.4,0-3.6,2.1-6.6,6.4c-3,4.2-4.5,7.6-4.5,10.1c0,0.7,0.2,1.3,0.5,1.8
		c0.5,0.6,1.1,0.9,1.9,0.9c1.6,0,3.7-1.2,6.2-3.5c1.2-1.2,2.9-3,5-5.5c-0.7,1.5-1.6,3.3-2.5,5.2c-0.9,1.8-1.5,3.2-1.9,4.3
		c-0.7,0.4-1.6,1-2.8,1.7c-3,1.7-5.2,3.1-6.7,4.2c-5.1,3.8-7.7,7.6-7.7,11.2c0,1.3,0.3,2.4,1,3.2c0.9,1.1,2,1.7,3.4,1.7
		c3.5,0,6.9-2.9,10.2-8.6c1.8-3.1,3.6-7,5.6-11.8c3.4-1.9,6.4-4.2,8.8-6.9c-0.1,0.7-0.2,1.4-0.2,2c0,0.9,0.2,1.7,0.5,2.3
		c0.6,1.3,1.6,1.9,3,1.9c2.9,0,6-2.6,9.1-7.8c0.8-1.4,1.6-2.7,2.2-4c1-0.3,2-0.7,2.9-1.2c-1.8,3.2-2.7,6-2.7,8.6
		c0,1,0.2,1.9,0.7,2.6c0.6,1,1.5,1.5,2.7,1.5c1.3,0,2.7-0.8,4-2.3c0.8-0.8,1.7-2,2.7-3.4c0.1,1,0.1,1.6,0.2,1.8
		c0.2,1.6,0.8,2.8,1.7,3.7c1,0.9,1.9,1.3,3,1.5c0.4,0.1,1.1,0.1,1.6,0c0.8-0.2,1.5-0.5,2-1.6c1.4-2.9,2.9-5.3,4.3-7.3
		c2.5-3.2,4.7-5.4,6.5-6.8c-0.5,0.8-0.7,1.4-0.7,2c0,0.8,0.3,1.4,0.8,1.8c0.6,0.4,1.3,0.6,2.1,0.6c1.9,0,3.8-0.8,5.9-2.3
		c2-1.5,3-2.5,3-3.2C299.8,51.8,299.7,51.6,299.4,51.4z M229.7,73.6c-1.6,3.4-2.5,5.5-2.9,6.1c-2.1,3.7-4.1,5.5-5.8,5.5
		c-0.6,0-1-0.2-1.4-0.6c-0.3-0.3-0.4-0.7-0.4-1.1c0-2.1,1.3-4.3,3.9-6.8c2.6-2.3,5.1-4.1,7.6-5.4C230.4,72.1,230.1,72.9,229.7,73.6z
		 M254.9,57.9c0,0-0.1,0.4-0.5,1.2s-0.8,1.5-1.4,2.2c-1.3,1.7-2.5,2.5-3.6,2.5c-0.5,0-0.9-0.2-1.2-0.6c-0.2-0.3-0.3-0.7-0.3-1.1
		c0-1.5,0.6-3.4,1.7-5.7c1-2,2.4-3.9,4.3-5.8c1.5-1.5,2.6-2.2,3.3-2.2c0.4,0,0.7,0.2,0.9,0.5c0.1,0.2,0.2,0.4,0.2,0.6
		c0,1.5-1.1,3.4-3.2,5.7c-0.8,0.8-1.1,1.4-1.1,1.5C254,57.1,254.3,57.4,254.9,57.9z"/>
	<path class="st1" d="M400.6,48.8c0-0.4-0.2-0.8-0.5-1.1s-0.7-0.4-1.1-0.4c-2,0-5.8,2.8-11.3,8.3c0.5-1.1,1.4-2.5,2.6-4.1
		c0.8-1,1.2-1.7,1.2-2.2c0-0.3-0.1-0.6-0.4-0.8c-0.3-0.3-0.6-0.4-1-0.4c-0.8,0-2.3,0.9-4.6,2.6c-1.5,1.2-3.2,2.8-5.2,4.9
		c0.5-1.2,1.5-3,3-5.5c0.9-1.3,1.3-2.1,1.3-2.5c0-0.8-0.4-1.1-1.1-1.1c-0.8,0-1.9,1.1-3.3,3.2c-2,3-3.9,6.5-5.5,10.3
		c-0.9,2.2-1.6,3.9-1.9,5.3c-0.1-0.1-0.2-0.1-0.2-0.2c-0.6-0.6-0.9-1.4-0.9-2.4c0-1.2,0.4-2.8,1.1-4.9c0.7-1.9,1.4-3.4,2-4.6
		c0.7-1.1,1-1.9,1-2.4c0-0.4-0.2-0.8-0.5-1.3c0.4-0.9,0.6-1.6,0.6-2.1c0-0.7-0.3-1.3-0.8-1.8c-0.7-0.6-1.5-0.9-2.5-0.9
		c-1.6,0-3.2,0.6-4.9,1.8c-2.6,1.9-4.8,4.6-6.6,8.1c-0.3,0.5-0.5,1-0.7,1.4c-0.4,0.1-0.9,0.5-1.4,1.1c-3.8,4.5-7.2,6.7-10.2,6.7
		c-1.3,0-2.3-0.4-2.9-1.3c-0.3-0.4-0.4-0.8-0.4-1.3v-0.6c4.8-1.4,8.3-4,10.7-7.8c1.1-1.8,1.7-3.3,1.7-4.6c0-0.8-0.3-1.4-0.9-1.9
		c-0.5-0.4-1-0.6-1.7-0.6c-2.3,0-4.9,1.5-7.9,4.6c-0.3,0.3-0.5,0.6-0.8,0.8c-0.1-0.1-0.2-0.1-0.3-0.1c-0.3,0-0.6,0.1-1.1,0.4
		c-2.5,1.7-4.2,2.5-5.2,2.5c-0.6,0-0.9-0.3-0.9-0.8c0-1,1.2-2.4,3.6-4.3c0.9-0.7,1.3-1.3,1.3-1.7c0-0.2-0.1-0.5-0.3-0.8
		c-0.4-0.5-0.7-0.8-1.1-0.8c-0.2,0-0.6,0.2-1.2,0.5c-1.2,0.7-2.4,1.5-3.4,2.4c-3,2.3-5.6,4.7-7.9,7.2c0.6-1.4,1.4-2.7,2.4-4.1
		c1.1-1.5,1.8-2.2,1.9-2.4c0.5-0.6,0.7-1.1,0.7-1.5s-0.2-0.6-0.5-0.9c-0.3-0.2-0.5-0.3-0.8-0.3c-0.9,0-2.1,0.9-3.4,2.6
		c-2.2,2.8-4.3,6.8-6.3,12c-0.8,2.1-1.4,3.7-1.7,4.9c-0.3-0.2-0.4-0.4-0.5-0.5c-0.5-0.8-0.8-1.8-0.8-3.2c0-3.3,1.6-8.2,4.9-14.8
		c2.8-5.6,6-11.2,9.4-16.7c0.8-1.3,1.2-2.2,1.2-2.7c0-0.4-0.1-0.7-0.4-1s-0.6-0.5-1-0.5c-0.7,0-1.5,0.5-2.3,1.5
		c-0.7,0.9-2.1,3.1-4.1,6.6c-2.1,3.6-4.3,7.9-6.6,12.8c-0.9-0.6-1.8-0.9-2.6-0.9c-3,0-5.9,1.8-8.5,5.5c-2.7,3.7-4,7.4-4,11
		c0,1.2,0.3,2.3,0.8,3.3c0.8,1.5,1.8,2.2,3.1,2.2c2.2,0,4.6-2.2,7-6.6c0.1,1.4,0.2,2.4,0.2,2.9c0.2,1.2,0.8,2.3,1.7,3.2
		c0.7,0.7,1.3,1,1.8,1c2.8,0,3.2-1,3.8-2.1c1.4-2.9,2.9-5.3,4.3-7.3c2.5-3.2,4.7-5.4,6.5-6.8c-0.5,0.8-0.7,1.4-0.7,2
		c0,0.8,0.3,1.4,0.8,1.8c0.6,0.4,1.3,0.6,2.1,0.6c1.6,0,3.2-0.6,5-1.7c-1,2-1.5,4-1.5,6.1c0,1.5,0.3,2.6,1,3.4
		c1,1.2,2.4,1.8,4.1,1.8s3.6-0.5,5.6-1.6s3.9-2.5,5.6-4.2c0.2-0.2,0.4-0.4,0.5-0.5c-0.1,0.8-0.2,1.5-0.2,2.2c0,1.1,0.2,2,0.7,2.7
		c0.7,1.2,1.7,1.8,3,1.8c1.5,0,2.9-0.9,4.4-2.7c0.8-0.9,1.5-2.1,2.3-3.4c-0.1,1.1-0.1,1.9-0.1,2.3c0,1.4,0.4,2.5,1.1,3.4
		c0.9,1.1,2,1.7,3.3,1.7c0.1,0,0.3,0,0.4,0s0.1,0,0.2,0c0.8,0,1.5-0.6,2-1.8c2-5.3,5-9.5,9-12.6c-1.1,1.9-2,3.7-2.8,5.4
		c-1.3,3-2,5-2,5.9s0.4,1.3,1.2,1.3c0.7,0,1.4-0.5,1.9-1.6c1.1-2.2,2.4-4.2,3.8-6c2.1-2.6,4.1-4.7,6.1-6.2c-1,1.3-1.7,2.3-2.1,3.1
		c-1.2,2.2-1.8,4.3-1.8,6.5c0,1.6,0.4,3,1.2,4.1c0.7,1,1.4,1.5,2.1,1.5c0.4,0,0.8-0.2,1.2-0.6c0.3-0.3,0.5-0.7,0.5-1.1
		c0-0.3-0.1-0.6-0.3-0.8l-0.9-1.2c-0.4-0.5-0.6-1.4-0.6-2.6c0-2.9,2.2-6.7,6.6-11.2C400.1,50.3,400.6,49.4,400.6,48.8z M321,51.1
		l-0.3,0.7c-0.4,1-0.9,2-1.4,3c-1.3,2.9-2.8,5.4-4.4,7.5c-1.2,1.6-2.2,2.4-3,2.4c-0.6,0-1-0.3-1.3-0.9c-0.1-0.3-0.2-0.6-0.2-1
		c0-2.9,1.2-6,3.5-9.1c1.8-2.4,3.6-3.6,5.6-3.6c0.5,0,1,0.2,1.7,0.6L321,51.1z M351.6,50.8c1.1-0.9,2-1.4,2.6-1.4
		c0.4,0,0.7,0.2,0.7,0.7c0,0.4-0.2,0.9-0.5,1.5c-1,1.6-2.3,3-3.9,4.3c-0.9,0.7-2.2,1.3-3.9,1.9C347.9,54.7,349.6,52.4,351.6,50.8z
		 M370.7,54.2c-1.2,2.6-2.3,4.5-3.1,5.8c-1.5,2.4-2.8,3.6-3.9,3.6c-0.4,0-0.8-0.2-1-0.5s-0.3-0.8-0.3-1.3c0-2.4,1.1-5.3,3.4-8.8
		c2.1-3.1,4-4.7,5.8-4.7c0.4,0,0.7,0.1,1.1,0.4s0.6,0.6,0.9,1.1c-0.5,0.4-0.8,0.7-1,1C372.1,51.5,371.5,52.6,370.7,54.2z"/>
	<g class="st2">
		<g>
			<path class="st3" d="M403.4,78.8c-0.6-0.1-1-0.3-1.4-0.6c-0.2-0.2-0.3-0.4-0.2-0.7c0.2-0.7,0.6-1.4,1.4-2.3s1.7-1.6,2.7-1.5
				c1.1,0,1.6,0.7,1.5,1.8c-0.1,1.1-0.6,2-1.5,2.7C405.2,78.8,404.3,78.9,403.4,78.8z"/>
		</g>
	</g>
	<g class="st2">
		<path class="st3" d="M415.4,36.1c0.9-2.3,3.5-2.8,2.6-0.2c-4.9,14.3-9.2,21.7-10.4,31c-0.2,1.6-3.2,0.4-3-1.1
			C406,56.6,410.4,49.4,415.4,36.1z"/>
	</g>
</g>
<g>
	<g class="st4">
		<path class="st5" d="M31.8,67.2c-0.8,0-1.4-0.3-1.9-1.1c-0.5-0.7-0.7-1.4-0.7-2.1c0-1,0.6-2.5,1.4-4.4c2.7-5.9,5.9-11.7,9.4-17.2
			c4.9-7.4,8.5-12.7,11.2-16c0.2-0.3,0.5-0.6,0.8-1c0.5-0.6,1-1.2,1.4-1.8c1.2-1.6,2.2-2.4,3.1-2.4c0.4,0,0.8,0.2,1.2,0.5
			c0.3,0.3,0.5,0.8,0.5,1.1c0,0.5-0.4,1.3-1.2,2.5c-0.1,0.1-0.3,0.4-0.7,0.9c-0.5,0.6-1.2,1.6-2.2,2.9l-1,1.3
			c-2.8,3.7-5,6.6-6.4,8.8c-1.3,1.9-3.2,4.7-5.2,8.1c-3.7,5.8-6.1,10.7-7.3,14.6c0.3-0.1,0.5-0.1,0.7-0.2c0.2,0,0.3-0.1,0.5-0.1
			c5.2-1.6,9.2-2.5,11.6-2.5c1.8,0,2.7,0.7,2.7,2.1c0,0.5-0.2,1.1-0.6,1.5c-0.4,0.4-0.9,0.6-1.4,0.6c-0.2,0-0.6,0-1-0.1
			c-0.4-0.1-0.7-0.1-0.9-0.1c-1.4,0-3.2,0.3-5.4,0.9c-0.8,0.3-2.4,0.9-4.7,2C34,66.8,32.7,67.2,31.8,67.2z"/>
		<path class="st6" d="M56.5,21.3c0.4,0,0.8,0.2,1.1,0.5c0.3,0.3,0.5,0.7,0.5,1c0,0.5-0.4,1.3-1.2,2.4c-0.2,0.2-1.1,1.5-2.9,3.8
			c-3.3,4.4-5.8,7.7-7.4,10.1c-1.6,2.3-3.4,5-5.2,8.1c-3.7,5.9-6.2,10.9-7.4,14.9c0.6-0.2,1.1-0.3,1.4-0.4c5.4-1.7,9.3-2.5,11.6-2.5
			c1.8,0,2.6,0.7,2.6,2c0,0.5-0.2,1-0.6,1.4c-0.4,0.4-0.8,0.6-1.3,0.6c-0.2,0-0.6,0-1-0.1C46.3,63,46,63,45.8,63
			c-1.4,0-3.2,0.3-5.4,0.9c-0.8,0.3-2.4,0.9-4.7,2c-1.6,0.7-2.9,1.1-3.9,1.1c-0.7,0-1.3-0.3-1.8-1c-0.4-0.6-0.7-1.3-0.7-2
			c0-0.9,0.5-2.3,1.4-4.4c2.9-6.4,6.1-12.1,9.4-17.2c4.8-7.3,8.5-12.6,11.2-16c0.7-0.9,1.5-1.8,2.2-2.8
			C54.6,22.1,55.6,21.3,56.5,21.3 M56.5,21.1c-1,0-2,0.8-3.2,2.4c-0.4,0.6-0.9,1.2-1.4,1.8c-0.3,0.3-0.5,0.6-0.8,1
			c-2.7,3.4-6.3,8.6-11.2,16c-3.6,5.5-6.7,11.3-9.4,17.2C29.6,61.5,29,63,29,64c0,0.7,0.3,1.4,0.7,2.1c0.5,0.7,1.2,1.1,2,1.1
			c1,0,2.3-0.4,4-1.1c2.3-1.1,3.9-1.7,4.7-2c2.1-0.6,3.9-0.9,5.3-0.9c0.2,0,0.5,0,0.8,0.1c0.4,0.1,0.9,0.1,1.1,0.1
			c0.5,0,1-0.2,1.5-0.7c0.4-0.4,0.7-1,0.7-1.6c0-1.5-1-2.3-2.9-2.3c-2.4,0-6.5,0.9-11.7,2.5c-0.1,0-0.3,0.1-0.5,0.1
			c-0.1,0-0.3,0.1-0.5,0.1c1.2-3.9,3.7-8.7,7.2-14.4c2-3.4,3.9-6.2,5.2-8.1c1.4-2.2,3.6-5.1,6.4-8.8l1-1.3c1-1.3,1.8-2.3,2.2-2.9
			c0.3-0.4,0.6-0.8,0.6-0.8c0.9-1.2,1.3-2,1.3-2.6c0-0.4-0.2-0.8-0.6-1.2C57.4,21.3,56.9,21.1,56.5,21.1L56.5,21.1z"/>
	</g>
	<g class="st4">
		<path class="st5" d="M71.9,65.2c-1.2,0-2.3-0.6-3.1-1.8c-0.5-0.7-0.7-1.7-0.7-3.1c0-0.5,0-1.1,0.1-1.7l-0.5,0.5
			c-1.7,1.7-3.6,3.1-5.6,4.2c-1.9,1.1-3.9,1.6-5.7,1.6c-1.8,0-3.2-0.6-4.2-1.8c-0.7-0.8-1-1.9-1-3.5c0-3.9,1.9-7.8,5.6-11.7
			c3-3.1,5.6-4.6,8-4.6c0.7,0,1.2,0.2,1.8,0.6c0.6,0.5,0.9,1.2,0.9,2c0,1.3-0.5,2.7-1.7,4.7c-2.4,3.9-5.9,6.4-10.7,7.8V59
			c0,0.5,0.1,0.9,0.4,1.2c0.6,0.8,1.5,1.3,2.8,1.3c2.9,0,6.2-2.2,10-6.5c0.4-0.5,0.8-0.8,1.1-1c0.3-1,0.8-2.1,1.3-3.2
			c0.4-1,1.4-3.1,3.2-6.6l-0.1,0c-0.5,0.1-0.8,0.1-1.1,0.1c-0.5,0-0.9-0.2-1.4-0.4c-0.6-0.3-0.9-0.8-0.9-1.3c0-0.6,0.3-1.1,1.1-1.5
			c0.2-0.1,1.1-0.3,2.6-0.5c0.7-0.1,1.5-0.3,2.5-0.7c0.8-1.6,2.2-3.6,3.9-6c1-1.4,1.7-2.3,2.1-2.7c0.6-0.6,1.1-0.9,1.6-0.9
			c0.3,0,0.6,0.2,1,0.5c0.3,0.3,0.4,0.6,0.4,1c0,0.6-0.6,1.7-2,3.7c-0.6,0.8-1.3,1.8-1.7,2.5c2.6-0.7,4.3-1,5.3-1
			c0.8,0,1.3,0.2,1.7,0.6c0.3,0.3,0.4,0.7,0.3,1.2c0,0.5-0.3,0.9-0.7,1.3c-0.2,0.2-0.8,0.3-1.9,0.4c-0.1,0-0.1,0-0.1,0
			c-0.6,0-2.5,0.5-5.1,1.3c-0.8,0.2-1.6,0.4-2.6,0.8c-1.3,2.1-2.7,4.7-4.1,7.8c-1.9,4.1-2.8,7.2-2.8,9.3c0,0.5,0.2,1,0.4,1.2
			c0.2,0.3,0.6,0.4,1,0.4c1.1,0,2.5-1.1,4.2-3.3l0.6-0.9c0.8-1.1,1.5-2.1,2.2-3.2c0.4-0.8,0.9-1.3,1.5-1.3c0.4,0,0.7,0.1,0.9,0.3
			c0.2,0.2,0.3,0.5,0.3,0.7c0,0.9-1.1,2.9-3.4,5.9C76.6,63.4,74.2,65.2,71.9,65.2z M63.3,47.4c-0.6,0-1.4,0.5-2.5,1.4
			c-2,1.6-3.6,3.8-4.9,6.7c1.7-0.6,2.8-1.2,3.6-1.8c1.6-1.3,2.9-2.7,3.9-4.3c0.2-0.5,0.5-1,0.5-1.4C63.8,47.5,63.6,47.4,63.3,47.4z"
			/>
		<path class="st6" d="M84.2,30.4c0.3,0,0.6,0.2,0.9,0.5c0.3,0.3,0.4,0.6,0.4,0.9c0,0.6-0.7,1.8-2,3.6c-0.8,1.1-1.5,2.1-1.9,2.8
			c2.6-0.7,4.5-1.1,5.6-1.1c1.3,0,2,0.6,1.9,1.6c0,0.5-0.3,0.9-0.7,1.2c-0.2,0.2-0.8,0.3-1.8,0.4c0,0-0.1,0-0.1,0
			c-0.6,0-2.3,0.5-5.2,1.3c-0.9,0.2-1.8,0.5-2.6,0.8c-1.5,2.3-2.9,5-4.2,7.9c-1.9,4.2-2.8,7.3-2.8,9.4c0,0.5,0.2,1,0.4,1.3
			s0.6,0.5,1.1,0.5c1.2,0,2.6-1.1,4.3-3.3c1-1.4,2-2.7,2.8-4.1c0.4-0.8,0.9-1.2,1.4-1.2c0.3,0,0.6,0.1,0.8,0.3
			c0.2,0.2,0.3,0.4,0.3,0.6c0,0.9-1.1,2.8-3.4,5.8c-2.8,3.6-5.2,5.4-7.5,5.4c-1.2,0-2.2-0.6-3-1.7c-0.5-0.7-0.7-1.7-0.7-3
			c0-0.6,0-1.3,0.1-2c-0.3,0.3-0.5,0.5-0.8,0.8c-1.7,1.7-3.6,3.1-5.6,4.2c-2,1.1-3.9,1.6-5.6,1.6s-3.1-0.6-4.1-1.8
			c-0.7-0.8-1-1.9-1-3.4c0-3.9,1.9-7.8,5.6-11.6c3-3.1,5.6-4.6,7.9-4.6c0.7,0,1.2,0.2,1.7,0.6c0.6,0.5,0.9,1.1,0.9,1.9
			c0,1.3-0.6,2.8-1.7,4.6c-2.4,3.8-5.9,6.4-10.7,7.8V59c0,0.5,0.1,0.9,0.4,1.3c0.6,0.9,1.6,1.3,2.9,1.3c2.9,0,6.3-2.2,10.1-6.5
			c0.4-0.5,0.8-0.8,1.1-1c0.4-1.1,0.8-2.2,1.3-3.3c0.4-1,1.5-3.2,3.3-6.8c-0.6,0.1-1.1,0.2-1.4,0.2c-0.5,0-0.9-0.2-1.3-0.4
			c-0.5-0.3-0.8-0.7-0.8-1.2c0-0.6,0.3-1,1-1.4c0.2-0.1,1.1-0.3,2.6-0.5c0.6-0.1,1.4-0.3,2.5-0.7c0.8-1.5,2.1-3.5,4-6
			c1-1.4,1.7-2.3,2.1-2.7C83.3,30.7,83.8,30.4,84.2,30.4 M55.7,55.6c1.7-0.6,3-1.2,3.9-1.9c1.6-1.3,2.9-2.7,3.9-4.3
			c0.3-0.6,0.5-1.1,0.5-1.5c0-0.5-0.3-0.7-0.7-0.7c-0.6,0-1.5,0.5-2.6,1.4C58.7,50.2,57,52.5,55.7,55.6 M84.2,30.2
			c-0.5,0-1,0.3-1.7,1c-0.4,0.4-1.1,1.3-2.1,2.7c-1.8,2.3-3.1,4.3-4,5.9c-0.9,0.3-1.7,0.5-2.4,0.7c-1.3,0.2-2.4,0.4-2.7,0.5
			c-0.8,0.5-1.1,0.9-1.1,1.6c0,0.6,0.3,1.1,0.9,1.4c0.4,0.2,0.9,0.4,1.4,0.4c0.2,0,0.6-0.1,1-0.1c-1.7,3.4-2.7,5.4-3.1,6.4
			c-0.5,1.1-0.9,2.2-1.3,3.2c-0.3,0.2-0.7,0.5-1.1,1c-3.8,4.2-7.1,6.4-9.9,6.4c-1.3,0-2.2-0.4-2.7-1.2c-0.3-0.3-0.4-0.7-0.4-1.2
			v-0.4c4.7-1.4,8.2-4,10.7-7.9c1.2-1.9,1.7-3.4,1.7-4.7c0-0.9-0.3-1.5-1-2.1c-0.6-0.5-1.1-0.7-1.9-0.7c-2.4,0-5,1.5-8.1,4.7
			c-3.8,3.9-5.7,7.8-5.7,11.8c0,1.6,0.3,2.7,1.1,3.6c1,1.2,2.5,1.9,4.3,1.9c1.8,0,3.8-0.5,5.7-1.6c2.1-1.1,4-2.6,5.7-4.2l0.3-0.3
			c0,0.5,0,0.9,0,1.3c0,1.4,0.2,2.4,0.7,3.1c0.9,1.2,1.9,1.8,3.2,1.8c2.3,0,4.8-1.7,7.7-5.5c2.3-3,3.5-5,3.5-6
			c0-0.3-0.1-0.5-0.4-0.8c-0.2-0.2-0.6-0.4-1-0.4c-0.6,0-1.2,0.5-1.6,1.3c-0.6,1.1-1.4,2.1-2.2,3.2c-0.2,0.3-0.4,0.6-0.6,0.9
			c-1.7,2.1-3,3.2-4.1,3.2c-0.4,0-0.7-0.1-0.9-0.4c-0.2-0.2-0.4-0.7-0.4-1.2c0-2.1,0.9-5.2,2.8-9.3c1.4-3.1,2.8-5.7,4.1-7.8
			c0.9-0.3,1.8-0.6,2.5-0.8c2.6-0.7,4.5-1.3,5.1-1.3c0,0,0.1,0,0.1,0l0,0l0,0c1.2-0.1,1.7-0.2,2-0.5c0.5-0.4,0.8-0.9,0.8-1.4
			c0-0.5-0.1-0.9-0.4-1.2c-0.4-0.4-1-0.6-1.8-0.6c-1,0-2.6,0.3-5.1,0.9c0.4-0.6,0.9-1.3,1.6-2.3c1.4-2,2-3.1,2-3.7
			c0-0.4-0.2-0.8-0.5-1.1C84.8,30.4,84.5,30.2,84.2,30.2L84.2,30.2z M56.1,55.2c1.2-2.7,2.8-4.8,4.7-6.4c1.4-1.1,2.1-1.3,2.4-1.3
			c0.3,0,0.5,0.1,0.5,0.5c0,0.4-0.2,0.9-0.5,1.4c-0.9,1.5-2.2,2.9-3.8,4.2C58.7,54.1,57.6,54.6,56.1,55.2L56.1,55.2z"/>
	</g>
	<g class="st4">
		<path class="st5" d="M107.2,68.1c-2.1,0-4.4-0.9-6.3-2.5c-0.2-0.2-0.3-0.2-0.4-0.3c-0.2-0.1-0.3-0.2-0.5-0.4c-1-1-1.5-2.2-1.7-3.8
			c-0.1-0.1-0.1-0.4-0.1-0.9c0-0.2,0-0.4,0-0.6c-0.9,1.2-1.7,2.4-2.5,3.1c-1.3,1.5-2.7,2.3-4.1,2.3c-1.2,0-2.2-0.5-2.8-1.6
			c-0.5-0.7-0.7-1.6-0.7-2.7c0-3,1.3-6.6,3.9-10.5c1.2-1.8,2.4-3.2,3.6-4.2c1.1-0.9,1.8-1.2,2.4-1.2c0.4,0,0.7,0.1,1,0.4
			c0.3,0.3,0.4,0.6,0.4,0.9c0,0.5-0.4,1.3-1.3,2.3c-1.9,2.2-3.4,4.4-4.4,6.4c-1.2,2.1-1.8,4-1.8,5.2c0,0.4,0,0.5,0.2,0.7
			c0.2,0.2,0.4,0.3,0.6,0.3c0.8,0,2.3-0.9,4.9-5c1.1-1.8,2-3.7,2.8-5.9c0.5-1.1,1-2.2,1.7-3.1c0.6-0.8,1.3-1.2,2-1.2
			c0.3,0,0.6,0.2,1,0.5c0.3,0.3,0.5,0.8,0.5,1.2c0,0.8-0.8,2.7-2.4,5.8c-1.1,2.1-1.7,3.7-1.7,5c0,1.4,0.4,2.7,1.2,3.6
			c0.3,0.3,0.9,0.7,1.9,1.3l0.1,0.1c0.8,0.5,2.1,1.2,3.2,1.2c0.1,0,0.3,0,0.4,0c2-0.3,3-1.5,3.5-2.2c0.1-0.1,0.1-0.2,0.2-0.3
			c0.4-0.5,0.6-1.1,0.6-1.9c0-0.9-0.5-2-1.7-3.7c-1.6-2.3-2.3-4.2-2.3-6c0-2.4,1.3-4.5,3.9-6.3c2.6-1.8,5.2-2.6,8-2.6
			c1.5,0,2.6,0.3,3.4,0.8c0.7,0.5,1.2,1.3,1,1.9c0,1.4-0.5,2.7-1.5,4.1c-1,1.3-2.3,2.2-4.5,3c-1.1,0.4-2,0.6-2.7,0.6
			c-1.1,0-1.6-0.5-1.6-1.4c0-0.4,0.2-1.1,0.9-1.4c0,0,0.1-0.2,2.4-0.6c0.9-0.2,1.7-0.6,2.3-1.2c0.6-0.6,0.9-1.1,0.9-1.7
			c0-0.5-0.1-0.7-0.4-1c-0.3-0.3-0.6-0.4-1.2-0.4c-1.3,0-2.8,0.5-4.4,1.7c-1.8,1.2-2.7,2.6-2.7,4.3c0,1.1,0.6,2.7,1.9,4.5
			c1.4,2,2.1,3.8,2.1,5.2c0,1.9-0.7,3.5-2.4,5.2c-2.3,2.3-3.1,2.5-4.4,2.6c-0.2,0-0.4,0.1-0.7,0.1C108.2,68,107.7,68.1,107.2,68.1z"
			/>
		<path class="st6" d="M120.3,41.7c1.5,0,2.6,0.3,3.3,0.8c0.7,0.5,1.1,1.3,1,1.8c0,1.4-0.5,2.7-1.5,4c-1,1.3-2.4,2.2-4.4,3
			c-1.1,0.4-2,0.6-2.7,0.6c-1,0-1.5-0.4-1.5-1.3c0-0.5,0.2-1,0.8-1.3c0.1-0.1,0.9-0.3,2.4-0.6c0.9-0.2,1.7-0.6,2.4-1.2
			c0.6-0.6,0.9-1.2,0.9-1.8c0-0.5-0.1-0.8-0.4-1.1c-0.3-0.3-0.7-0.4-1.3-0.4c-1.4,0-2.9,0.6-4.5,1.7c-1.9,1.2-2.8,2.7-2.8,4.4
			c0,1.2,0.7,2.8,1.9,4.6c1.4,2,2.1,3.7,2.1,5.1c0,2.1-0.9,3.6-2.4,5.1c-2.6,2.7-3.3,2.4-5,2.7c-0.4,0.1-0.9,0.1-1.3,0.1
			c-2,0-4.2-0.8-6.3-2.4c-0.3-0.3-0.6-0.4-0.9-0.7c-0.9-0.9-1.5-2.1-1.7-3.7c-0.1-0.2-0.1-0.8-0.2-1.8c-1,1.4-1.9,2.6-2.7,3.4
			c-1.3,1.5-2.7,2.3-4,2.3c-1.2,0-2.1-0.5-2.7-1.5c-0.5-0.7-0.7-1.6-0.7-2.6c0-3,1.3-6.5,3.9-10.4c1.2-1.8,2.4-3.2,3.6-4.2
			c1-0.8,1.7-1.2,2.3-1.2c0.3,0,0.6,0.1,0.9,0.4c0.3,0.3,0.4,0.5,0.4,0.8c0,0.5-0.4,1.2-1.3,2.2c-1.9,2.3-3.4,4.5-4.4,6.4
			c-1.2,2.2-1.8,4-1.8,5.3c0,0.4,0,0.6,0.2,0.8s0.4,0.3,0.7,0.3c1.2,0,2.9-1.7,5-5.1c1.1-1.8,2-3.7,2.8-5.9c0.5-1.1,1-2.2,1.7-3.1
			c0.6-0.8,1.3-1.2,1.9-1.2c0.3,0,0.6,0.2,0.9,0.5s0.5,0.7,0.5,1.1c0,0.8-0.8,2.7-2.4,5.7c-1.1,2-1.7,3.7-1.7,5.1s0.4,2.7,1.2,3.7
			c0.2,0.2,0.8,0.7,1.9,1.3c0.1,0.1,0.1,0.1,0.1,0.1c0.9,0.5,2.2,1.2,3.3,1.2c0.1,0,0.3,0,0.4,0c2.4-0.3,3.3-1.9,3.8-2.5
			c0.4-0.5,0.6-1.2,0.6-2c0-1-0.6-2.2-1.7-3.8c-1.5-2.2-2.3-4.1-2.3-5.9c0-2.3,1.2-4.4,3.8-6.2C114.9,42.6,117.5,41.7,120.3,41.7
			 M120.3,41.5c-2.8,0-5.4,0.9-8,2.6c-2.6,1.8-3.9,4-3.9,6.4c0,1.8,0.7,3.7,2.3,6c1.2,1.7,1.7,2.8,1.7,3.7c0,0.8-0.2,1.4-0.5,1.8
			c-0.1,0.1-0.1,0.2-0.2,0.3c-0.5,0.7-1.4,1.9-3.4,2.1c-0.1,0-0.2,0-0.4,0c-1.1,0-2.3-0.7-3.2-1.2l-0.1-0.1l0,0l0,0
			c-1.3-0.7-1.8-1.2-1.8-1.3c-0.7-0.9-1.1-2.1-1.1-3.5c0-1.3,0.5-2.9,1.7-5c1.6-3.1,2.4-5,2.4-5.8c0-0.4-0.2-0.9-0.6-1.3
			c-0.4-0.4-0.7-0.6-1.1-0.6c-0.7,0-1.5,0.5-2.1,1.3c-0.7,0.9-1.2,2.1-1.7,3.1c-0.8,2.2-1.7,4.1-2.8,5.9c-2.7,4.3-4.1,5-4.8,5
			c-0.2,0-0.4-0.1-0.5-0.2c-0.1-0.1-0.1-0.2-0.1-0.6c0-1.3,0.6-3.1,1.8-5.2c1-1.9,2.5-4.1,4.4-6.4c0.9-1,1.4-1.8,1.4-2.4
			c0-0.4-0.1-0.6-0.5-1c-0.3-0.3-0.7-0.5-1.1-0.5c-0.6,0-1.3,0.4-2.5,1.3c-1.2,1-2.4,2.4-3.7,4.3c-2.6,3.9-3.9,7.5-3.9,10.5
			c0,1.1,0.3,2.1,0.7,2.7c0.6,1.1,1.6,1.6,2.9,1.6c1.4,0,2.8-0.8,4.2-2.4c0.7-0.7,1.5-1.8,2.3-2.9c0,0.1,0,0.2,0,0.2
			c0,0.5,0.1,0.8,0.1,0.9c0.2,1.6,0.8,2.8,1.8,3.8c0.2,0.2,0.3,0.3,0.5,0.4c0.1,0.1,0.3,0.2,0.4,0.3c2,1.6,4.3,2.5,6.4,2.5
			c0.5,0,1-0.1,1.4-0.2c0.2,0,0.5-0.1,0.7-0.1c1.3-0.2,2.2-0.3,4.5-2.7c1.7-1.7,2.5-3.3,2.5-5.3c0-1.4-0.7-3.2-2.1-5.2
			c-1.2-1.8-1.9-3.4-1.9-4.5c0-1.7,0.9-3.1,2.7-4.2c1.6-1.1,3.1-1.7,4.4-1.7c0.6,0,0.9,0.1,1.1,0.3c0.2,0.2,0.3,0.5,0.3,0.9
			c0,0.5-0.3,1.1-0.8,1.6c-0.7,0.6-1.4,0.9-2.3,1.1c-2.1,0.4-2.4,0.6-2.5,0.6c-0.6,0.3-0.9,0.8-0.9,1.5c0,1,0.6,1.6,1.8,1.6
			c0.7,0,1.7-0.2,2.8-0.6c2.1-0.9,3.5-1.8,4.5-3.1c1-1.4,1.6-2.7,1.6-4.2c0.1-0.6-0.4-1.5-1.1-2C122.9,41.8,121.7,41.5,120.3,41.5
			L120.3,41.5z"/>
	</g>
	<g class="st2">
		<g>
			<path class="st5" d="M132.3,66.7c-0.5,0-0.9-0.2-1.3-0.7c-0.3-0.4-0.4-0.7-0.4-1.2c0-0.7,1.4-4.2,4-10
				c3.9-8.5,8.1-16.7,13.1-24.9c2.3-3.7,3.6-5.7,3.7-5.9c0.4-0.5,0.9-1.2,1.5-1.2c0.5,0,1.1,0.3,1.5,0.8c0.3,0.4,0.4,0.8,0.4,1.3
				c0,0.5-0.3,1.1-0.7,2c-0.1,0.1-0.4,0.7-0.9,1.5c-0.3,0.6-0.8,1.3-1.3,2.1c-4.1,6.2-7.2,11.5-9.1,15.7c1.8-1.5,3.5-2.2,5.1-2.2
				c1,0,1.9,0.4,2.5,1.2c0.6,0.8,0.9,1.7,0.9,2.6c0,1.8-0.6,4-1.8,6.7c-1.2,2.8-3.2,5.5-5.8,8.1c-2.1,2.1-4.1,3.1-6.1,3.1
				c-0.8,0-1.5-0.1-2-0.4c-0.5-0.3-1-0.6-1.4-1.1c0,0.1-0.1,0.1-0.1,0.2c-0.1,0.1-0.1,0.2-0.2,0.2c-0.3,0.7-0.6,1.2-0.7,1.5
				l-0.1,0.2C132.9,66.6,132.6,66.7,132.3,66.7z M135.6,60.6c0.3,0.3,0.5,0.5,0.7,0.7c0.1,0.1,0.2,0.2,0.3,0.3
				c0.2,0.2,0.6,0.4,1,0.4c2,0,4-1.7,6.4-5.2c1-1.4,1.8-2.9,2.5-4.7c0.5-1.3,0.8-2.3,0.8-3.3c0-0.4-0.1-0.7-0.3-0.9
				c-0.2-0.2-0.5-0.3-0.9-0.3c-1.1,0-2.4,0.7-3.8,2.2c-1.5,1.5-3,3.6-4.5,6.3c-0.7,1.3-1.3,2.6-1.8,3.7L135.6,60.6z"/>
			<path class="st6" d="M152.9,22.9c0.5,0,1,0.3,1.4,0.8c0.3,0.4,0.4,0.8,0.4,1.2c0,0.5-0.3,1.1-0.7,1.9c-0.1,0.1-0.8,1.3-2.2,3.6
				c-4.3,6.5-7.4,11.9-9.3,16.2c2-1.7,3.8-2.5,5.4-2.5c1,0,1.8,0.4,2.4,1.2c0.6,0.8,0.9,1.6,0.9,2.5c0,1.8-0.6,4-1.8,6.6
				c-1.3,2.9-3.3,5.6-5.8,8.1c-2.1,2.1-4.1,3.1-6,3.1c-0.7,0-1.4-0.1-1.9-0.4c-0.5-0.3-1.1-0.7-1.5-1.2c-0.2,0.3-0.4,0.5-0.4,0.6
				c-0.4,0.9-0.7,1.4-0.8,1.6c-0.1,0.2-0.4,0.3-0.7,0.3c-0.4,0-0.8-0.2-1.2-0.7c-0.3-0.4-0.4-0.7-0.4-1.1c0-0.6,1.3-3.9,4-9.9
				c3.8-8.4,8.1-16.6,13.1-24.9c2-3.3,3.3-5.3,3.7-5.9C152,23.3,152.5,22.9,152.9,22.9 M137.7,62.1c2.1,0,4.2-1.8,6.5-5.3
				c1.1-1.5,1.9-3.1,2.5-4.7c0.6-1.4,0.8-2.4,0.8-3.3c0-0.4-0.1-0.8-0.3-1s-0.6-0.3-1-0.3c-1.1,0-2.4,0.7-3.9,2.2s-3,3.6-4.5,6.3
				c-0.7,1.3-1.3,2.6-1.8,3.7l-0.5,0.9c0.4,0.5,0.8,0.8,1.1,1.1C136.9,62,137.3,62.1,137.7,62.1 M152.9,22.7c-0.6,0-1.2,0.7-1.6,1.2
				c-0.1,0.2-1.4,2.2-3.7,5.9c-5,8.2-9.3,16.4-13.1,24.9c-1.5,3.3-4,9.1-4,10c0,0.5,0.1,0.8,0.4,1.2c0.4,0.5,0.9,0.8,1.4,0.8
				c0.3,0,0.8-0.1,0.9-0.4c0,0,0.1-0.1,0.1-0.2c0.1-0.3,0.4-0.7,0.7-1.4l0,0v-0.1c0,0,0,0,0,0c0,0,0.1-0.1,0.1-0.1c0,0,0,0,0-0.1
				c0.4,0.4,0.9,0.8,1.4,1c0.5,0.3,1.2,0.4,2,0.4c2,0,4.1-1.1,6.2-3.2c2.6-2.6,4.6-5.4,5.9-8.2c1.2-2.6,1.8-4.9,1.8-6.7
				c0-0.9-0.3-1.8-1-2.6c-0.6-0.9-1.5-1.3-2.6-1.3c-1.5,0-3.1,0.6-4.7,1.9c1.9-4.1,4.9-9.2,8.8-15.2c0.5-0.9,0.9-1.6,1.3-2.1
				c0.5-0.8,0.8-1.4,0.9-1.5l0,0l0,0c0.4-0.8,0.7-1.5,0.7-2c0-0.5-0.1-0.9-0.4-1.3C154,23,153.4,22.7,152.9,22.7L152.9,22.7z
				 M135.8,60.6l0.4-0.8c0.5-1.1,1.1-2.4,1.8-3.7c1.5-2.7,3-4.8,4.5-6.2c1.4-1.4,2.7-2.1,3.7-2.1c0.4,0,0.7,0.1,0.8,0.2
				s0.2,0.5,0.2,0.8c0,1-0.2,1.9-0.8,3.2c-0.7,1.8-1.5,3.3-2.5,4.7c-2.3,3.5-4.4,5.2-6.3,5.2c-0.4,0-0.7-0.1-0.9-0.3
				c-0.1-0.1-0.2-0.2-0.3-0.3C136.2,61.1,136,60.9,135.8,60.6L135.8,60.6z"/>
		</g>
		<g>
			<path class="st5" d="M179,45.2c-0.6,0-0.9-0.1-1.4-0.5c-0.3-0.3-0.4-0.7-0.4-1.2c0-1.1,0.6-2.3,1.9-3.7c1.1-1,1.9-1.4,2.6-1.4
				c1.2,0,1.7,0.5,1.7,1.7c0,1-0.5,2.2-1.5,3.4C180.9,44.5,179.9,45.2,179,45.2z"/>
			<path class="st6" d="M181.7,38.4c1.1,0,1.6,0.5,1.6,1.6c0,1-0.5,2.1-1.5,3.3c-0.9,1.1-1.9,1.7-2.8,1.7c-0.5,0-0.8-0.1-1.3-0.5
				c-0.3-0.3-0.4-0.7-0.4-1.1c0-1.1,0.7-2.3,1.9-3.6C180.2,38.9,181,38.4,181.7,38.4 M181.7,38.2c-0.7,0-1.5,0.5-2.7,1.5
				c-1.3,1.4-2,2.7-2,3.8c0,0.5,0.2,1,0.5,1.3c0.5,0.4,0.9,0.6,1.5,0.6c1,0,2-0.6,3-1.8c1-1.2,1.6-2.4,1.6-3.5
				C183.5,38.8,182.9,38.2,181.7,38.2L181.7,38.2z"/>
		</g>
		<g>
			<path class="st5" d="M205.9,66.7c-0.5,0-1-0.3-1.9-1c-0.9-0.9-1.5-2.1-1.7-3.3c-0.1-0.4-0.2-1.3-0.3-2.5
				c-2.5,4.3-4.8,6.4-6.9,6.4c-1.3,0-2.3-0.7-3.2-2.3c-0.5-1-0.8-2.1-0.8-3.2c0,0-0.1,0.1-0.1,0.1c-2.3,3.3-4.6,5-6.7,5
				c-0.9,0-1.6-0.4-2.3-1.1c-0.4-0.7-0.6-1.3-0.6-2.1c0-0.4,0.1-0.9,0.1-1.5c-1.1,1.4-2.4,2.9-3.6,3.7c-0.3,0.2-0.7,0.2-1.1,0.2
				c-1,0-2.2-0.4-2.9-1c-0.9-0.8-1.3-1.3-1.6-3c0-0.1,0-0.3-0.1-0.6c0-0.2-0.1-0.5-0.1-0.9c-0.9,1.2-1.7,2.3-2.4,3.1
				c-1.4,1.5-2.6,2.2-3.9,2.3l-0.2,0c-0.1,0-0.2,0-0.3,0c-1,0-2-0.5-3-1.3c-0.9-0.9-1.4-2.1-1.7-3.7c0-0.1,0-0.3-0.1-0.6
				c0-0.2-0.1-0.5-0.1-0.9c-0.9,1.3-1.7,2.3-2.4,3.1c-1.3,1.6-2.7,2.4-4.1,2.4c-1.1,0-2.1-0.5-2.8-1.6c-0.3-0.6-0.7-1.5-0.7-2.7
				c-0.1-3,1.1-6.6,3.6-10.6c1-1.7,2.1-3.2,3.4-4.3c1-0.9,1.7-1.2,2.3-1.2c0.4,0,0.7,0.1,1,0.4c0.3,0.3,0.4,0.6,0.4,0.9
				c0.1,0.4-0.3,1.1-1.2,2.3c-1.9,2.4-3.3,4.5-4.3,6.5c-1.1,2.2-1.6,4-1.6,5.3c0,0.3,0,0.4,0.2,0.6c0.2,0.1,0.3,0.2,0.6,0.2
				c1.2-0.1,2.9-2,4.8-5.2c1.1-1.8,2-3.8,2.7-6c0.5-1.4,1-2.4,1.6-3.2c0.6-0.9,1.3-1.3,2-1.3c0.5,0,0.8,0.1,1.1,0.4
				c0.3,0.3,0.5,0.8,0.5,1.2c0,0.9-0.7,2.6-2.3,5.9c-1,2-1.5,3.7-1.5,5c0.1,1.5,0.5,2.7,1.3,3.6c0.1,0.2,0.5,0.4,1,0.7
				c0.2,0.1,0.4,0.2,0.6,0.3c0.1,0,0.2,0,0.3,0c1.3,0,2.6-2.3,4.3-5.3l0.3-0.5c1.1-1.8,2-3.8,2.7-6c0.5-1.4,1-2.4,1.6-3.2
				c0.6-0.9,1.3-1.3,2-1.3c0.5,0,0.8,0.1,1.1,0.4c0.3,0.3,0.5,0.8,0.5,1.2c0,0.9-0.7,2.6-2.3,5.9c-1,2-1.5,3.7-1.5,5
				c0,1.4,0.2,2.2,1.2,2.9l0.1,0c0.7,0,2.7-2.1,4.4-4c0.9-1,1.7-1.8,2.5-2.5c0.5-1.6,1.2-3.3,2.4-5.9c4-8.8,7.9-15.7,11.9-21.2
				c3.4-4.6,6.1-6.9,8.3-6.9c0.7,0,1.2,0.3,1.8,0.8c0.5,0.6,0.7,1.2,0.7,1.9c0.1,3.3-2.7,8.8-8.4,16.7c-2.6,3.5-5.6,6.9-9.2,10.4
				c-0.6,0.5-1.2,1.1-2,1.8c-0.6,0.6-1.2,1.2-1.9,1.9c-0.7,1.8-1.2,3.4-1.5,4.4c-0.4,1.3-0.5,2.1-0.5,2.4c0.1,0.6,0.3,0.8,0.8,0.8
				c0.8-0.1,1.9-1,3.1-2.5c0.6-0.7,1.5-2.2,2.7-4.2l0.1-0.2c0.2-0.3,0.4-0.6,0.7-0.8c0.6-1.6,1.4-3,2.5-4.5c2.6-3.7,5.5-5.7,8.6-5.7
				c0.8,0,1.7,0.3,2.5,0.8c2.4-5.2,4.4-9.2,6.4-12.8c1.9-3.6,3.3-5.8,4-6.7c0.8-1.1,1.6-1.5,2.3-1.5c0,0,0.1,0,0.2,0
				c0.4,0,0.7,0.2,0.9,0.5c0.3,0.3,0.4,0.7,0.4,1.5c0,0.5-0.4,1.4-1.2,2.8c-3.1,5-6.1,10.5-9.2,16.8c-3.2,6.6-4.8,11.5-4.8,14.7
				c0,1.3,0.2,2.3,0.8,3.1c0.1,0.2,0.5,0.5,1.3,1.1c0.2,0.2,0.3,0.4,0.3,0.8c0,0.4-0.1,0.9-0.5,1.4
				C206.7,66.4,206.3,66.7,205.9,66.7z M203.5,47c-1.9,0-3.8,1.2-5.5,3.6c-2.2,3-3.4,6.1-3.4,9c0,0.4,0.1,0.7,0.2,1
				c0.3,0.6,0.6,0.8,1.2,0.8c0.8,0,1.6-0.7,2.9-2.4c1.5-2,2.9-4.5,4.3-7.5c0.2-0.5,0.4-1,0.6-1.5c0.2-0.5,0.4-1,0.6-1.5l0.3-0.7
				l0.2-0.4C204.3,47.1,203.9,47,203.5,47z M204.3,24.7c-0.9,0.1-2.8,1.5-6.8,7.8c-2.8,4.3-5.4,9.4-7.7,15.1
				c4.7-4.3,8.7-9.4,12.3-15.7c2.3-4,2.8-5.8,2.8-6.5C204.8,24.7,204.5,24.7,204.3,24.7z"/>
			<path class="st6" d="M206.3,20.3c0.7,0,1.2,0.3,1.7,0.8c0.4,0.5,0.7,1.1,0.7,1.8c0.1,3.3-2.7,8.8-8.4,16.6
				c-2.6,3.5-5.6,6.9-9.2,10.4c-1,0.9-2.3,2.2-3.9,3.7c-0.7,1.9-1.2,3.4-1.5,4.5c-0.4,1.2-0.5,2-0.5,2.4c0.1,0.6,0.3,0.9,0.9,0.9
				c0.8-0.1,1.9-0.9,3.2-2.5c0.6-0.7,1.5-2.2,2.7-4.2c0.3-0.4,0.5-0.7,0.8-0.9c0.6-1.5,1.4-3,2.5-4.5c2.6-3.7,5.5-5.6,8.5-5.6
				c0.8,0,1.7,0.3,2.6,0.9c2.3-5,4.4-9.2,6.5-12.9c1.9-3.6,3.3-5.8,4-6.7c0.8-1,1.5-1.5,2.2-1.5c0.1,0,0.1,0,0.2,0
				c0.3,0,0.5,0.2,0.8,0.4c0.3,0.3,0.4,0.6,0.4,1.4c0,0.5-0.4,1.4-1.2,2.7c-3.4,5.5-6.4,11.1-9.2,16.8c-3.2,6.6-4.8,11.5-4.8,14.8
				c0,1.4,0.3,2.4,0.8,3.2c0.1,0.2,0.5,0.5,1.3,1.1c0.1,0.1,0.2,0.3,0.2,0.7c0,0.5-0.1,0.9-0.5,1.3c-0.4,0.4-0.8,0.6-1.2,0.6
				c-0.5,0-1.1-0.4-1.8-1c-0.9-0.9-1.5-2-1.7-3.2c-0.1-0.5-0.2-1.5-0.3-2.9c-2.5,4.4-4.8,6.7-7,6.7c-1.3,0-2.3-0.8-3.1-2.2
				c-0.5-1-0.8-2.1-0.8-3.3c0,0,0-0.1,0-0.2c-0.1,0.1-0.2,0.3-0.3,0.4c-2.3,3.3-4.5,5-6.6,5c-0.9,0-1.6-0.4-2.2-1.1
				c-0.4-0.6-0.6-1.2-0.6-2c0-0.5,0.1-1.2,0.2-1.9c-1.1,1.4-2.5,3.2-3.9,4c-0.3,0.1-0.7,0.2-1.1,0.2c-1,0-2.1-0.4-2.8-1
				c-0.9-0.8-1.3-1.3-1.6-2.9c0-0.2-0.1-0.8-0.2-1.8c-1,1.4-1.8,2.5-2.6,3.4c-1.3,1.4-2.5,2.2-3.8,2.3c-0.1,0-0.1,0-0.2,0
				c-0.1,0-0.2,0-0.3,0c-1,0-2-0.5-2.9-1.3c-0.8-0.8-1.4-2-1.7-3.6c0-0.2-0.1-0.8-0.2-1.8c-1,1.4-1.8,2.5-2.6,3.4
				c-1.3,1.6-2.7,2.4-4,2.4c-1.1,0-2-0.5-2.7-1.5c-0.4-0.7-0.7-1.6-0.7-2.6c-0.1-3,1.1-6.5,3.6-10.5c1.1-1.9,2.3-3.3,3.4-4.3
				c0.9-0.8,1.6-1.2,2.2-1.2c0.3,0,0.6,0.1,0.9,0.4c0.3,0.3,0.4,0.5,0.4,0.8c0.1,0.4-0.4,1.2-1.2,2.2c-1.9,2.4-3.3,4.5-4.3,6.5
				c-1.1,2.3-1.6,4.1-1.6,5.4c0,0.3,0,0.5,0.2,0.7c0.2,0.1,0.4,0.2,0.7,0.2c1.2-0.1,2.9-1.8,4.9-5.3c1.1-1.8,2-3.8,2.7-6
				c0.4-1.2,0.9-2.3,1.6-3.2c0.6-0.9,1.3-1.3,1.9-1.3c0.4,0,0.7,0.1,1,0.4c0.3,0.3,0.5,0.7,0.5,1.1c0,0.9-0.8,2.8-2.3,5.8
				c-1,2-1.5,3.7-1.5,5.1c0.1,1.5,0.5,2.7,1.3,3.7c0.2,0.3,0.8,0.6,1.6,1.1c0.1,0,0.2,0.1,0.4,0.1c1.5,0,2.9-2.6,4.7-5.9
				c1.1-1.8,2-3.8,2.7-6c0.4-1.2,0.9-2.3,1.6-3.2c0.6-0.9,1.3-1.3,1.9-1.3c0.4,0,0.7,0.1,1,0.4s0.5,0.7,0.5,1.1
				c0,0.9-0.8,2.8-2.3,5.8c-1,2-1.5,3.7-1.5,5.1c0,1.4,0.2,2.3,1.3,3c0,0,0.1,0.1,0.2,0.1c1.1,0,4.7-4.4,6.9-6.6
				c0.6-1.8,1.4-3.7,2.4-5.9c3.9-8.6,7.8-15.6,11.9-21.2C201.4,22.6,204.1,20.3,206.3,20.3 M189.5,48c4.8-4.3,9-9.6,12.7-16.1
				c1.9-3.3,2.8-5.5,2.8-6.6c0-0.6-0.3-0.8-0.7-0.8c-1.3,0.1-3.6,2.7-6.9,7.9C194.7,36.6,192,41.8,189.5,48 M196,61.5
				c0.9,0,1.8-0.8,3-2.4c1.6-2.1,3-4.6,4.3-7.5c0.4-1,0.9-2,1.3-3l0.3-0.7l0.3-0.5c-0.7-0.4-1.2-0.6-1.7-0.6c-2,0-3.9,1.3-5.6,3.7
				c-2.3,3.1-3.4,6.2-3.4,9.1c0,0.4,0.1,0.7,0.2,1C195,61.2,195.4,61.5,196,61.5 M206.3,20.1c-2.2,0-5,2.3-8.4,6.9
				c-4.1,5.5-8,12.5-11.9,21.2c-1.1,2.5-1.8,4.2-2.4,5.9c-0.7,0.7-1.5,1.6-2.4,2.5c-1.6,1.8-3.7,3.9-4.3,3.9c-1-0.6-1.2-1.5-1.2-2.8
				c0-1.4,0.5-3,1.5-5c1.7-3.3,2.3-5,2.3-5.9c0-0.4-0.2-0.9-0.6-1.3c-0.3-0.3-0.7-0.5-1.2-0.5c-0.7,0-1.5,0.5-2.1,1.4
				c-0.6,0.8-1.2,1.9-1.6,3.3c-0.7,2.2-1.6,4.2-2.7,5.9l-0.3,0.5c-1.6,2.8-3,5.2-4.2,5.2c-0.1,0-0.2,0-0.3,0
				c-0.2-0.1-0.4-0.2-0.5-0.3c-0.5-0.3-0.8-0.5-1-0.7c-0.8-1-1.2-2.1-1.3-3.6c0-1.3,0.5-3,1.5-5c1.7-3.3,2.3-5,2.3-5.9
				c0-0.4-0.2-0.9-0.6-1.3c-0.3-0.3-0.7-0.5-1.2-0.5c-0.7,0-1.5,0.5-2.1,1.4c-0.6,0.8-1.2,1.9-1.6,3.3c-0.7,2.2-1.6,4.2-2.7,5.9
				c-1.8,3.2-3.5,5.1-4.7,5.2c-0.2,0-0.4-0.1-0.5-0.2c-0.1-0.1-0.1-0.2-0.1-0.5c0-1.3,0.5-3.1,1.6-5.3c1-2,2.3-4,4.3-6.5
				c1-1.2,1.3-1.9,1.3-2.4c0-0.4-0.1-0.6-0.5-0.9c-0.3-0.3-0.7-0.5-1.1-0.5c-0.7,0-1.4,0.4-2.4,1.3c-1.3,1.2-2.5,2.6-3.5,4.4
				c-2.5,4-3.7,7.6-3.6,10.6c0,1.2,0.4,2.1,0.7,2.7c0.8,1.1,1.7,1.6,2.9,1.6c1.4,0,2.9-0.9,4.2-2.5c0.7-0.8,1.4-1.7,2.2-2.9
				c0,0.2,0,0.4,0.1,0.6c0,0.3,0.1,0.5,0.1,0.6c0.3,1.6,0.9,2.9,1.8,3.8c1,0.9,2.1,1.4,3.1,1.4c0.1,0,0.2,0,0.3,0l0.2,0
				c1.3-0.1,2.6-0.9,4-2.4c0.7-0.8,1.4-1.8,2.2-2.9c0,0.2,0,0.4,0.1,0.6c0,0.3,0.1,0.5,0.1,0.6c0.3,1.7,0.8,2.3,1.7,3.1
				c0.7,0.6,1.9,1.1,3,1.1c0.5,0,0.9-0.1,1.2-0.2c1.2-0.7,2.4-2.1,3.4-3.3c0,0.4-0.1,0.7-0.1,1c0,0.8,0.2,1.5,0.6,2.1
				c0.7,0.8,1.5,1.2,2.4,1.2c2.1,0,4.4-1.7,6.7-4.9c0.1,1,0.3,1.9,0.8,2.9c0.9,1.6,2,2.3,3.3,2.3c2.1,0,4.4-2,6.8-6.1
				c0.1,1,0.2,1.7,0.2,2.1c0.2,1.2,0.8,2.4,1.8,3.3c0.9,0.8,1.5,1.1,2,1.1c0.5,0,0.9-0.2,1.4-0.7c0.5-0.5,0.6-1,0.6-1.5
				c0-0.4-0.1-0.7-0.3-0.9c-0.7-0.5-1.2-0.9-1.3-1c-0.5-0.9-0.8-1.8-0.8-3.1c0-3.3,1.6-8.1,4.8-14.7c3.1-6.3,6.1-11.8,9.2-16.8
				c0.8-1.4,1.2-2.3,1.2-2.8c0-0.8-0.1-1.2-0.5-1.6c-0.2-0.2-0.6-0.5-1-0.5c-0.1,0-0.2,0-0.2,0c-0.8,0-1.5,0.5-2.4,1.6
				c-0.3,0.4-1.6,2.2-4,6.7c-2,3.5-4,7.6-6.4,12.7c-0.8-0.5-1.7-0.8-2.5-0.8c-3.1,0-6,1.9-8.7,5.7c-1,1.4-1.9,2.9-2.5,4.5
				c-0.3,0.2-0.5,0.4-0.7,0.8l-0.1,0.1c-1.2,2-2.1,3.5-2.7,4.2c-1.6,2-2.6,2.4-3,2.4c-0.4,0-0.5-0.2-0.6-0.7c0-0.2,0.1-1,0.5-2.3
				c0.3-1.1,0.8-2.6,1.5-4.4c0.7-0.7,1.3-1.3,1.9-1.8c0.7-0.7,1.4-1.3,1.9-1.8c3.6-3.5,6.6-6.9,9.2-10.4c5.8-7.9,8.6-13.4,8.4-16.8
				c0-0.7-0.3-1.3-0.8-1.9C207.5,20.3,207,20.1,206.3,20.1L206.3,20.1z M190.1,47.1c2.3-5.5,4.8-10.3,7.5-14.5
				c4-6.3,5.9-7.7,6.7-7.8c0.3,0,0.4,0.1,0.4,0.6c0,0.8-0.5,2.5-2.8,6.5C198.5,37.9,194.6,42.9,190.1,47.1L190.1,47.1z M196,61.3
				c-0.5,0-0.8-0.2-1.1-0.8c-0.1-0.3-0.2-0.5-0.2-0.9c0-2.9,1.1-6,3.4-9c1.7-2.4,3.5-3.6,5.4-3.6c0.4,0,0.8,0.1,1.4,0.4l-0.2,0.3
				l-0.3,0.7c-0.2,0.5-0.4,1-0.6,1.5c-0.2,0.5-0.5,1-0.7,1.5c-1.3,3-2.7,5.4-4.3,7.4C197.6,60.6,196.7,61.3,196,61.3L196,61.3z"/>
		</g>
	</g>
	<g class="st4">
		<path class="st5" d="M218,86.8c-1.4,0-2.5-0.6-3.5-1.7c-0.7-0.8-1-1.9-1-3.3c0-3.7,2.6-7.5,7.8-11.3c1.6-1.2,3.9-2.6,6.7-4.2
			c0.6-0.4,1.2-0.7,1.7-1c0.4-0.3,0.8-0.5,1.1-0.7c0.4-1.1,1-2.6,1.8-4.2c0.4-0.9,0.8-1.8,1.3-2.6c0.3-0.6,0.6-1.2,0.8-1.7
			c-1.5,1.8-3,3.4-4.4,4.8c-2.6,2.3-4.7,3.5-6.3,3.5c-0.8,0-1.5-0.3-2-0.9c-0.4-0.6-0.5-1.2-0.5-1.9c0-2.5,1.5-6,4.5-10.2
			c3-4.3,5.2-6.5,6.7-6.5c0.5,0,0.8,0.3,1.1,0.5c0.3,0.2,0.4,0.5,0.4,1c0,0.7-0.1,1.1-0.4,1.5c-0.6,0.8-1.4,1.7-2.3,2.6
			c-1.6,1.7-2.7,3.1-3.7,4.5c-1.2,1.7-1.9,3.1-1.9,3.9c0,0.4,0.1,0.6,0.6,0.6c1,0,2.7-1.2,5.2-3.8c1.6-1.6,2.9-3,3.8-4.1
			c0.1-0.1,0.6-0.8,1.4-1.8l1.1-1.5l1.1-1.4c0.7-0.9,1.1-1.5,1.4-1.7c0.7-0.8,1.4-1.2,2.1-1.2c0.5,0,0.8,0.3,1.1,0.5
			c0.3,0.3,0.4,0.7,0.4,1.2c0,0.7-0.4,1.7-1.4,3.5c-0.3,0.6-0.6,1.1-1,1.7c-0.8,1.3-1.5,2.5-2.1,3.7c-1.4,2.4-2.4,4.6-3.3,6.6
			c1.6-1,2.8-1.9,3.8-3c2-2,3.4-3.6,3.9-4.7c0.4-0.8,0.8-1.3,1.2-1.4c0-0.1,0.1-0.2,0.2-0.3c0.1-0.1,0.1-0.2,0.2-0.3
			c1.8-3.2,4.1-5.8,6.8-7.6c1.4-1.1,2.9-1.6,4.2-1.6c2,0,3,1.3,3,3.6c0,1.3-0.3,2.7-0.8,4.4c0.1,0,0.2-0.1,0.3-0.1
			c0.2-0.1,0.3-0.1,0.5-0.2c1.4-0.7,2.6-1.3,3.5-1.8c0.6-0.7,1.1-1.2,1.7-1.7c1.1-0.9,1.8-1.2,2.4-1.2c0.4,0,0.7,0.1,1,0.4
			c0.3,0.3,0.4,0.6,0.4,0.9c0,0.5-0.4,1.3-1.3,2.3c-1.9,2.2-3.4,4.4-4.4,6.4c-1.2,2.1-1.8,4-1.8,5.2c0,0.4,0,0.5,0.2,0.7
			c0.2,0.2,0.4,0.3,0.6,0.3c0.8,0,2.3-0.9,4.9-5c1.1-1.8,2-3.7,2.8-5.9c0.5-1.1,1-2.2,1.7-3.1c0.6-0.8,1.3-1.2,2-1.2
			c0.3,0,0.6,0.2,1,0.5c0.3,0.3,0.5,0.8,0.5,1.2c0,0.8-0.8,2.7-2.4,5.8c-1.1,2.1-1.7,3.7-1.7,5c0,1.4,0.4,2.7,1.2,3.6
			c0.2,0.3,0.6,0.6,1.3,1l0,0l0.1-0.3c0.4-1,0.8-2.3,1.4-3.8c2-5.2,4.1-9.2,6.3-12c1.3-1.7,2.5-2.6,3.5-2.6c0.3,0,0.5,0.1,0.9,0.3
			c0.3,0.3,0.6,0.6,0.6,1c0,0.5-0.2,1-0.7,1.6c0,0.1-0.2,0.2-0.4,0.5c-0.3,0.4-0.8,1-1.5,1.9c-0.9,1.3-1.6,2.3-2.1,3.4
			c2.3-2.4,4.7-4.6,7.4-6.6c0.9-0.8,2-1.6,3.4-2.4c0.6-0.3,1-0.5,1.3-0.5c0.5,0,0.8,0.4,1.2,0.8c0.2,0.3,0.3,0.6,0.3,0.9
			c0,0.5-0.5,1.1-1.3,1.8c-2.4,1.9-3.6,3.3-3.6,4.2c0,0.4,0.3,0.7,0.8,0.7c1,0,2.7-0.8,5.1-2.5c0.5-0.3,0.8-0.4,1.2-0.4
			c0.2,0,0.5,0.1,0.7,0.3c0.2,0.1,0.4,0.3,0.4,0.5c0,0.1,0,0.2-0.1,0.2c0,0.6-0.8,1.6-3,3.2c-2.2,1.6-4.1,2.3-6,2.3
			c-0.8,0-1.6-0.2-2.2-0.6c-0.6-0.4-0.9-1.1-0.9-1.9c0-0.5,0.1-0.9,0.4-1.5c-1.8,1.5-3.9,3.7-6,6.4c-1.7,2.4-3.1,4.8-4.3,7.3
			c-0.5,1.2-1.3,1.5-2.1,1.7c-0.3,0.1-0.6,0.1-0.9,0.1c-0.3,0-0.6,0-0.8-0.1c-1.2-0.2-2.1-0.7-3.1-1.5c-1-1-1.5-2.2-1.7-3.8
			c-0.1-0.1-0.1-0.4-0.1-0.9c0-0.2,0-0.4,0-0.6c-0.9,1.2-1.7,2.4-2.5,3.1c-1.3,1.5-2.7,2.3-4.1,2.3c-1.2,0-2.2-0.5-2.8-1.6
			c-0.5-0.7-0.7-1.6-0.7-2.7c0-2.5,0.8-5.2,2.5-8.3c-0.8,0.4-1.6,0.7-2.5,1c-0.5,1-1,2-1.6,3l-0.5,0.9c-3.1,5.2-6.2,7.9-9.2,7.9
			c-1.5,0-2.5-0.6-3.1-2c-0.3-0.7-0.5-1.5-0.5-2.4c0-0.5,0.1-1.1,0.1-1.6c-2.3,2.5-5.2,4.7-8.6,6.6c-2.1,5.2-3.9,8.9-5.6,11.8
			C224.9,83.8,221.5,86.8,218,86.8z M228.6,69.4c-2.3,1.3-4.7,3-7.3,5.2c-2.6,2.5-3.9,4.7-3.9,6.7c0,0.4,0.1,0.8,0.4,1
			c0.4,0.4,0.8,0.6,1.3,0.6c1.7,0,3.7-1.9,5.7-5.4c0.3-0.4,0.7-1.4,1.5-3c0.4-0.9,0.9-1.9,1.4-3.1C228.1,70.8,228.4,70.1,228.6,69.4
			z M255.4,46.4c-0.5,0-1.4,0.4-3.2,2.2c-1.9,1.9-3.3,3.8-4.3,5.8c-1.1,2.4-1.7,4.2-1.7,5.6c0,0.4,0.1,0.8,0.3,1
			c0.3,0.4,0.6,0.5,1.1,0.5c1.1,0,2.3-0.8,3.5-2.5c0.6-0.7,1-1.4,1.4-2.2c0.3-0.6,0.4-1,0.5-1.1c-0.5-0.4-0.9-0.8-0.9-1.2
			c0-0.2,0.3-0.8,1.1-1.6c2.1-2.3,3.2-4.2,3.2-5.6c0-0.2-0.1-0.4-0.2-0.5C256,46.6,255.8,46.4,255.4,46.4z"/>
		<path class="st6" d="M256.5,42.2c1.9,0,2.9,1.2,2.9,3.5c0,1.4-0.3,2.9-0.9,4.6c0.4-0.2,0.7-0.3,1.1-0.5c1.4-0.7,2.6-1.3,3.5-1.8
			c0.6-0.7,1.1-1.2,1.7-1.7c1-0.8,1.7-1.2,2.3-1.2c0.3,0,0.6,0.1,0.9,0.4c0.3,0.3,0.4,0.5,0.4,0.8c0,0.5-0.4,1.2-1.3,2.2
			c-1.9,2.3-3.4,4.5-4.4,6.4c-1.2,2.2-1.8,4-1.8,5.3c0,0.4,0,0.6,0.2,0.8s0.4,0.3,0.7,0.3c1.2,0,2.9-1.7,5-5.1
			c1.1-1.8,2-3.7,2.8-5.9c0.5-1.1,1-2.2,1.7-3.1c0.6-0.8,1.3-1.2,1.9-1.2c0.3,0,0.6,0.2,0.9,0.5s0.5,0.7,0.5,1.1
			c0,0.8-0.8,2.7-2.4,5.7c-1.1,2-1.7,3.7-1.7,5.1s0.4,2.7,1.2,3.7c0.2,0.3,0.7,0.6,1.5,1.1c0.4-1.1,0.9-2.5,1.6-4.3
			c2-5.2,4.1-9.2,6.3-12c1.3-1.7,2.5-2.6,3.4-2.6c0.3,0,0.5,0.1,0.8,0.3c0.3,0.3,0.5,0.5,0.5,0.9c0,0.4-0.2,0.9-0.7,1.5
			c-0.1,0.2-0.8,0.9-1.9,2.4c-1,1.4-1.8,2.7-2.4,4.1c2.3-2.5,4.9-4.9,7.9-7.2c1-0.9,2.2-1.7,3.4-2.4c0.6-0.3,1-0.5,1.2-0.5
			c0.4,0,0.7,0.3,1.1,0.8c0.2,0.3,0.3,0.6,0.3,0.8c0,0.4-0.4,1-1.3,1.7c-2.4,1.9-3.6,3.3-3.6,4.3c0,0.5,0.3,0.8,0.9,0.8
			c1,0,2.7-0.8,5.2-2.5c0.5-0.3,0.8-0.4,1.1-0.4c0.2,0,0.4,0.1,0.6,0.3c0.3,0.2,0.4,0.4,0.3,0.5c0,0.7-1,1.7-3,3.2
			c-2.1,1.5-4,2.3-5.9,2.3c-0.8,0-1.5-0.2-2.1-0.6c-0.5-0.4-0.8-1-0.8-1.8c0-0.6,0.2-1.2,0.7-2c-1.8,1.4-4,3.6-6.5,6.8
			c-1.4,2-2.9,4.4-4.3,7.3c-0.5,1.1-1.2,1.4-2,1.6c-0.3,0.1-0.5,0.1-0.8,0.1s-0.6,0-0.8-0.1c-1.1-0.2-2-0.6-3-1.5
			c-0.9-0.9-1.5-2.1-1.7-3.7c-0.1-0.2-0.1-0.8-0.2-1.8c-1,1.4-1.9,2.6-2.7,3.4c-1.3,1.5-2.7,2.3-4,2.3c-1.2,0-2.1-0.5-2.7-1.5
			c-0.5-0.7-0.7-1.6-0.7-2.6c0-2.6,0.9-5.4,2.7-8.6c-0.9,0.5-1.9,0.9-2.9,1.2c-0.6,1.3-1.4,2.6-2.2,4c-3.1,5.2-6.2,7.8-9.1,7.8
			c-1.4,0-2.4-0.6-3-1.9c-0.3-0.6-0.5-1.4-0.5-2.3c0-0.6,0.1-1.3,0.2-2c-2.4,2.7-5.4,5-8.8,6.9c-2,4.8-3.8,8.7-5.6,11.8
			c-3.3,5.7-6.7,8.6-10.2,8.6c-1.4,0-2.5-0.6-3.4-1.7c-0.7-0.8-1-1.9-1-3.2c0-3.6,2.6-7.4,7.7-11.2c1.5-1.1,3.7-2.5,6.7-4.2
			c1.2-0.7,2.1-1.3,2.8-1.7c0.4-1.1,1-2.5,1.9-4.3c0.9-1.9,1.8-3.7,2.5-5.2c-2.1,2.5-3.8,4.3-5,5.5c-2.5,2.3-4.6,3.5-6.2,3.5
			c-0.8,0-1.4-0.3-1.9-0.9c-0.3-0.5-0.5-1.1-0.5-1.8c0-2.5,1.5-5.9,4.5-10.1c3-4.3,5.2-6.4,6.6-6.4c0.4,0,0.7,0.2,1,0.5
			c0.3,0.2,0.4,0.5,0.4,0.9c0,0.6-0.1,1-0.4,1.4s-1,1.3-2.3,2.6c-1.3,1.4-2.6,2.9-3.7,4.5c-1.3,1.8-1.9,3.2-1.9,4
			c0,0.5,0.2,0.7,0.7,0.7c1,0,2.7-1.2,5.3-3.8c1.6-1.6,2.9-3,3.8-4.1c0.2-0.2,1-1.3,2.5-3.3c1.3-1.7,2.1-2.8,2.4-3.1
			c0.7-0.8,1.4-1.2,2-1.2c0.4,0,0.7,0.2,1,0.5c0.3,0.3,0.4,0.7,0.4,1.1c0,0.7-0.5,1.8-1.4,3.4c-1.1,1.9-2.2,3.7-3.1,5.4
			c-1.5,2.6-2.6,4.9-3.4,7c1.5-0.9,2.9-1.9,4.1-3.2c2.1-2.1,3.4-3.7,3.9-4.7c0.4-0.9,0.8-1.3,1.2-1.4c0.1-0.2,0.3-0.5,0.4-0.7
			c1.9-3.3,4.2-5.8,6.8-7.6C253.9,42.7,255.3,42.2,256.5,42.2 M247.6,61.6c1.1,0,2.3-0.8,3.6-2.5c0.6-0.7,1-1.4,1.4-2.2
			c0.4-0.8,0.5-1.2,0.5-1.2c-0.6-0.5-0.9-0.8-0.9-1.2c0-0.1,0.3-0.7,1.1-1.5c2.1-2.3,3.2-4.2,3.2-5.7c0-0.2-0.1-0.4-0.2-0.6
			c-0.2-0.3-0.5-0.5-0.9-0.5c-0.7,0-1.8,0.7-3.3,2.2c-1.9,1.9-3.3,3.8-4.3,5.8c-1.1,2.3-1.7,4.2-1.7,5.7c0,0.4,0.1,0.8,0.3,1.1
			C246.7,61.4,247.1,61.6,247.6,61.6 M219.2,83c1.7,0,3.7-1.8,5.8-5.5c0.4-0.6,1.3-2.7,2.9-6.1c0.4-0.7,0.7-1.5,1-2.3
			c-2.5,1.3-5,3.1-7.6,5.4c-2.6,2.5-3.9,4.7-3.9,6.8c0,0.4,0.1,0.8,0.4,1.1C218.2,82.8,218.6,83,219.2,83 M256.5,42
			c-1.3,0-2.8,0.6-4.2,1.6c-2.7,1.9-5,4.5-6.9,7.7c-0.1,0.1-0.1,0.2-0.2,0.3c-0.1,0.1-0.1,0.2-0.2,0.3c-0.5,0.2-0.9,0.7-1.3,1.5
			c-0.5,1-1.9,2.6-3.8,4.6c-0.9,1-2,1.9-3.4,2.8c0.8-2,1.8-4,3.1-6.3c0.6-1.2,1.4-2.4,2.1-3.7c0.3-0.5,0.6-1.1,1-1.7
			c1-1.8,1.4-2.8,1.4-3.5c0-0.5-0.2-1-0.5-1.3c-0.3-0.3-0.6-0.6-1.2-0.6c-0.7,0-1.5,0.4-2.2,1.3c-0.2,0.2-0.6,0.8-1.4,1.7
			c-0.3,0.4-0.7,0.9-1,1.4l-1.1,1.5c-0.7,1-1.2,1.6-1.4,1.8c-0.9,1.1-2.2,2.5-3.8,4.1c-2.5,2.5-4.2,3.7-5.1,3.7
			c-0.4,0-0.4-0.1-0.4-0.5c0-0.8,0.7-2.2,1.9-3.9c0.9-1.4,2.1-2.7,3.7-4.5c0.9-0.9,1.7-1.8,2.3-2.6c0.3-0.4,0.4-0.9,0.4-1.6
			c0-0.3-0.1-0.8-0.5-1.1c-0.2-0.3-0.6-0.5-1.1-0.5c-1.5,0-3.8,2.1-6.8,6.5c-3,4.2-4.5,7.7-4.5,10.2c0,0.7,0.2,1.3,0.5,1.9
			c0.6,0.7,1.3,1,2.1,1c1.7,0,3.8-1.2,6.4-3.6c1.2-1.2,2.5-2.6,3.8-4.1c-0.1,0.3-0.3,0.6-0.4,0.9c-0.4,0.8-0.8,1.7-1.3,2.6
			c-0.8,1.6-1.4,3-1.9,4.2c-0.3,0.2-0.7,0.4-1,0.6c-0.5,0.3-1,0.6-1.7,1c-2.8,1.6-5.1,3-6.7,4.2c-5.2,3.9-7.8,7.7-7.8,11.4
			c0,1.4,0.4,2.6,1.1,3.4c1,1.2,2.2,1.8,3.6,1.8c3.6,0,7.1-2.9,10.4-8.7c1.7-2.9,3.4-6.5,5.6-11.7c3.2-1.8,6-3.9,8.2-6.3
			c-0.1,0.4-0.1,0.9-0.1,1.2c0,0.9,0.2,1.7,0.5,2.4c0.6,1.4,1.7,2,3.2,2c3,0,6.2-2.7,9.3-7.9c0.2-0.3,0.4-0.6,0.5-0.9
			c0.6-1,1.2-2,1.6-3c0.8-0.2,1.5-0.5,2.1-0.8c-1.6,3-2.3,5.6-2.3,8c0,1.1,0.3,2.1,0.7,2.7c0.6,1.1,1.6,1.6,2.9,1.6
			c1.4,0,2.8-0.8,4.2-2.4c0.7-0.7,1.5-1.8,2.3-2.9c0,0.1,0,0.2,0,0.2c0,0.5,0.1,0.8,0.1,0.9c0.2,1.6,0.8,2.8,1.8,3.8
			c1,0.9,1.9,1.3,3.1,1.6c0.2,0,0.5,0.1,0.8,0.1c0.3,0,0.6,0,0.9-0.1c0.8-0.2,1.6-0.5,2.2-1.7c1.2-2.5,2.6-4.9,4.3-7.3
			c1.9-2.4,3.8-4.5,5.5-6c-0.1,0.4-0.2,0.7-0.2,1.1c0,0.8,0.3,1.5,0.9,2c0.7,0.4,1.4,0.7,2.3,0.7c1.9,0,3.8-0.7,6-2.3
			c2.2-1.6,3-2.6,3.1-3.3c0-0.1,0-0.1,0-0.2c0-0.2-0.2-0.4-0.4-0.6c-0.2-0.2-0.5-0.3-0.7-0.3c-0.4,0-0.7,0.1-1.2,0.4
			c-2.4,1.6-4.1,2.5-5.1,2.5c-0.6,0-0.6-0.3-0.6-0.5c0-0.9,1.1-2.2,3.5-4.1c0.9-0.7,1.4-1.4,1.4-1.9c0-0.3-0.1-0.6-0.3-0.9
			c-0.4-0.5-0.8-0.9-1.3-0.9c-0.3,0-0.6,0.2-1.3,0.5c-1.4,0.8-2.6,1.6-3.5,2.4c-2.5,1.9-4.7,3.9-6.8,6c0.4-0.8,1-1.6,1.7-2.6
			c0.7-0.9,1.2-1.5,1.5-1.9c0.2-0.3,0.3-0.4,0.4-0.5c0.5-0.6,0.7-1.1,0.7-1.6c0-0.5-0.3-0.8-0.6-1.1c-0.4-0.3-0.6-0.4-1-0.4
			c-1,0-2.2,0.9-3.6,2.7c-2.2,2.8-4.3,6.9-6.3,12.1c-0.6,1.6-1.1,2.8-1.4,3.8l-0.1,0.2c-0.6-0.4-1-0.6-1.2-0.9
			c-0.8-1-1.2-2.2-1.2-3.6c0-1.3,0.5-2.9,1.7-5c1.6-3.1,2.4-5,2.4-5.8c0-0.4-0.2-0.9-0.6-1.3c-0.4-0.4-0.7-0.6-1.1-0.6
			c-0.7,0-1.5,0.5-2.1,1.3c-0.7,0.9-1.2,2.1-1.7,3.1c-0.8,2.2-1.7,4.1-2.8,5.9c-2.7,4.3-4.1,5-4.8,5c-0.2,0-0.4-0.1-0.5-0.2
			c-0.1-0.1-0.1-0.2-0.1-0.6c0-1.3,0.6-3.1,1.8-5.2c1-1.9,2.5-4.1,4.4-6.4c0.9-1,1.4-1.8,1.4-2.4c0-0.4-0.1-0.6-0.5-1
			c-0.3-0.3-0.7-0.5-1.1-0.5c-0.6,0-1.3,0.4-2.5,1.3c-0.6,0.5-1.1,1-1.7,1.7c-0.9,0.5-2.1,1.1-3.5,1.8c-0.2,0.1-0.4,0.2-0.5,0.2
			c0,0,0,0,0,0c0.5-1.5,0.7-2.9,0.7-4.1C259.6,43.3,258.5,42,256.5,42L256.5,42z M247.6,61.4c-0.4,0-0.7-0.2-1-0.5
			c-0.2-0.2-0.3-0.6-0.3-0.9c0-1.4,0.5-3.2,1.7-5.6c1-2,2.4-3.9,4.3-5.7c1.9-1.9,2.8-2.1,3.1-2.1c0.3,0,0.5,0.1,0.7,0.4
			c0.1,0.2,0.2,0.3,0.2,0.5c0,1.4-1.1,3.3-3.1,5.5c-0.7,0.7-1.2,1.4-1.2,1.7c0,0.5,0.3,0.8,0.9,1.3c-0.1,0.2-0.2,0.5-0.4,1
			c-0.4,0.8-0.8,1.5-1.4,2.1C249.7,60.6,248.6,61.4,247.6,61.4L247.6,61.4z M219.2,82.8c-0.5,0-0.8-0.1-1.2-0.5
			c-0.2-0.2-0.3-0.5-0.3-0.9c0-2,1.3-4.1,3.8-6.6c2.4-2.2,4.7-3.8,7-5c-0.2,0.6-0.5,1.1-0.7,1.6c-0.6,1.2-1,2.2-1.4,3.1
			c-0.7,1.6-1.2,2.6-1.5,3C222.8,80.9,220.8,82.8,219.2,82.8L219.2,82.8z"/>
	</g>
	<g class="st4">
		<path class="st5" d="M319.9,67c-0.6,0-1.2-0.3-1.9-1c-0.9-0.9-1.5-2.1-1.7-3.3c0-0.3,0-0.9-0.1-1.6l-0.1-0.9
			c-2.3,4.1-4.7,6.3-6.9,6.3c-1.3,0-2.4-0.7-3.2-2.3c-0.5-1.1-0.8-2.2-0.8-3.4c0-3.7,1.4-7.4,4-11.1c2.6-3.7,5.5-5.6,8.6-5.6
			c0.8,0,1.7,0.3,2.5,0.8c2.4-5.1,4.5-9.2,6.5-12.7c1.8-3.2,3.3-5.6,4.1-6.6c0.8-1,1.6-1.5,2.4-1.5c0.5,0,0.8,0.3,1.1,0.5
			c0.3,0.3,0.4,0.6,0.4,1.1c0,0.5-0.4,1.4-1.2,2.8c-3.7,6-6.8,11.4-9.4,16.7c-3.2,6.5-4.9,11.4-4.9,14.7c0,1.3,0.2,2.3,0.8,3.1
			c0,0,0,0,0.1,0.1c0.1,0.1,0.1,0.2,0.2,0.3c0.3-1.2,0.9-2.6,1.7-4.7c2-5.2,4.1-9.2,6.3-12c1.3-1.7,2.5-2.6,3.5-2.6
			c0.3,0,0.6,0.1,0.9,0.3c0.3,0.3,0.6,0.6,0.6,1c0,0.5-0.2,1-0.7,1.6c0,0.1-0.2,0.2-0.4,0.5c-0.3,0.4-0.8,1-1.5,1.9
			c-0.9,1.3-1.6,2.3-2.1,3.4c2.3-2.4,4.7-4.6,7.4-6.6c0.9-0.8,2-1.6,3.4-2.4c0.6-0.3,1-0.5,1.3-0.5c0.5,0,0.8,0.4,1.2,0.8
			c0.2,0.3,0.3,0.6,0.3,0.9c0,0.5-0.5,1.1-1.3,1.8c-2.4,1.9-3.6,3.3-3.6,4.2c0,0.4,0.3,0.7,0.8,0.7c1,0,2.7-0.8,5.1-2.5
			c0.5-0.3,0.8-0.4,1.2-0.4c0.1,0,0.2,0,0.3,0.1c0.1-0.1,0.3-0.3,0.4-0.4c0.1-0.1,0.2-0.2,0.3-0.3c3-3.1,5.6-4.6,8-4.6
			c0.7,0,1.2,0.2,1.8,0.6c0.6,0.5,0.9,1.2,0.9,2c0,1.3-0.5,2.7-1.7,4.7c-2.4,3.9-5.9,6.4-10.7,7.8V59c0,0.5,0.1,0.9,0.4,1.2
			c0.6,0.8,1.5,1.3,2.8,1.3c3,0,6.4-2.2,10.1-6.7c0.5-0.6,1-1,1.4-1.1c0.1-0.1,0.1-0.2,0.2-0.4c0.1-0.3,0.3-0.7,0.5-1
			c1.8-3.5,4-6.2,6.6-8.1c1.7-1.2,3.4-1.8,5-1.8c1,0,1.9,0.3,2.6,0.9c0.6,0.6,0.8,1.2,0.8,1.9c0,0.5-0.2,1.2-0.6,2.1
			c0.3,0.5,0.5,0.9,0.5,1.3c0,0.6-0.4,1.4-1,2.5c-0.5,1-1.2,2.5-2,4.6c-0.8,2.3-1.1,3.8-1.1,4.9c0,1,0.3,1.7,0.9,2.3l0,0.1
			c0.3-1.4,1-3,1.8-5c1.6-3.7,3.5-7.3,5.5-10.4c1.5-2.2,2.6-3.3,3.4-3.3c0.8,0,1.2,0.4,1.2,1.2c0,0.4-0.4,1.3-1.3,2.6
			c-1.3,2.2-2.2,3.7-2.7,4.8c1.8-1.8,3.3-3.3,4.7-4.4c2.5-1.8,3.9-2.6,4.7-2.6c0.5,0,0.8,0.1,1.1,0.4c0.3,0.2,0.4,0.5,0.4,0.9
			c0,0.5-0.4,1.2-1.2,2.3c-1,1.3-1.7,2.5-2.2,3.4c5.2-5.2,8.9-7.8,10.8-7.8c0.5,0,0.9,0.1,1.2,0.4c0.3,0.3,0.5,0.8,0.5,1.2
			c0,0.7-0.6,1.6-1.7,1.9c-4.2,4.4-6.5,8.2-6.5,11.1c0,1.2,0.2,2.1,0.6,2.5l0.9,1.2c0.2,0.2,0.3,0.5,0.3,0.9c0,0.4-0.2,0.8-0.5,1.2
			c-0.4,0.4-0.9,0.6-1.3,0.6c-0.7,0-1.5-0.5-2.2-1.6c-0.8-1.1-1.2-2.5-1.2-4.2c0-2.2,0.6-4.3,1.8-6.6c0.3-0.6,0.8-1.3,1.5-2.3
			c-1.6,1.4-3.4,3.2-5.3,5.6c-1.5,1.9-2.8,3.9-3.8,6c-0.5,1.1-1.2,1.7-2,1.7c-0.9,0-1.3-0.5-1.3-1.4c0-0.9,0.6-2.8,2-6
			c0.9-1.8,1.7-3.4,2.5-4.8c-3.7,3-6.6,7.1-8.5,12.1c-0.5,1.2-1.2,1.9-2.1,1.9h-0.6c-1.3,0-2.4-0.6-3.4-1.7c-0.8-1-1.1-2.1-1.1-3.5
			c0-0.3,0-0.9,0.1-1.8l0,0c-0.7,1.1-1.3,2.2-2,3c-1.6,1.9-3,2.7-4.5,2.7c-1.3,0-2.4-0.6-3.1-1.9c-0.5-0.7-0.7-1.6-0.7-2.8
			c0-0.6,0.1-1.2,0.2-1.9l-0.2,0.2c-1.7,1.7-3.6,3.1-5.6,4.2c-1.9,1.1-3.9,1.6-5.7,1.6c-1.8,0-3.2-0.6-4.2-1.8c-0.7-0.8-1-1.9-1-3.5
			c0-2,0.4-3.9,1.3-5.8c-1.8,1-3.3,1.5-4.7,1.5c-0.8,0-1.6-0.2-2.2-0.6c-0.6-0.4-0.9-1.1-0.9-1.9c0-0.5,0.1-0.9,0.4-1.5
			c-1.8,1.5-3.9,3.7-6,6.4c-1.7,2.4-3.1,4.8-4.3,7.3l-0.1,0.2C323.1,66,322.6,67,319.9,67z M317.7,48.1c-1.9,0-3.7,1.1-5.5,3.6
			c-2.3,3.1-3.5,6.1-3.5,9c0,0.4,0.1,0.7,0.2,1c0.3,0.6,0.6,0.8,1.2,0.8c0.8,0,1.7-0.8,2.9-2.4c1.7-2.2,3.1-4.7,4.4-7.5
			c0.5-1,1-2,1.4-3l0.3-0.7l0.2-0.3C318.5,48.2,318.1,48.1,317.7,48.1z M369.8,46.3c-1.7,0-3.6,1.5-5.7,4.6
			c-2.3,3.5-3.4,6.3-3.4,8.7c0,0.5,0.1,1,0.3,1.2c0.2,0.3,0.5,0.4,0.9,0.4c1,0,2.3-1.2,3.8-3.5c1.1-1.8,2.1-3.7,3.1-5.8
			c0.9-1.7,1.4-2.8,1.9-3.4c0.2-0.3,0.5-0.6,0.9-1c-0.3-0.5-0.5-0.7-0.8-1C370.4,46.4,370.1,46.3,369.8,46.3z M352.4,47.4
			c-0.6,0-1.4,0.5-2.5,1.4c-2,1.6-3.6,3.8-4.9,6.7c1.7-0.6,2.8-1.2,3.6-1.8c1.6-1.3,2.9-2.7,3.9-4.3c0.2-0.5,0.5-1,0.5-1.4
			C352.9,47.5,352.7,47.4,352.4,47.4z"/>
		<path class="st6" d="M333.4,24.3c0.4,0,0.7,0.2,1,0.5c0.3,0.3,0.4,0.6,0.4,1c0,0.5-0.4,1.4-1.2,2.7c-3.4,5.5-6.6,11.1-9.4,16.7
			c-3.3,6.6-4.9,11.5-4.9,14.8c0,1.4,0.3,2.4,0.8,3.2c0.1,0.1,0.2,0.3,0.5,0.5c0.3-1.2,0.9-2.8,1.7-4.9c2-5.2,4.1-9.2,6.3-12
			c1.3-1.7,2.5-2.6,3.4-2.6c0.3,0,0.5,0.1,0.8,0.3c0.3,0.3,0.5,0.5,0.5,0.9s-0.2,0.9-0.7,1.5c-0.1,0.2-0.8,0.9-1.9,2.4
			c-1,1.4-1.8,2.7-2.4,4.1c2.3-2.5,4.9-4.9,7.9-7.2c1-0.9,2.2-1.7,3.4-2.4c0.6-0.3,1-0.5,1.2-0.5c0.4,0,0.7,0.3,1.1,0.8
			c0.2,0.3,0.3,0.6,0.3,0.8c0,0.4-0.4,1-1.3,1.7c-2.4,1.9-3.6,3.3-3.6,4.3c0,0.5,0.3,0.8,0.9,0.8c1,0,2.7-0.8,5.2-2.5
			c0.5-0.3,0.8-0.4,1.1-0.4c0.1,0,0.2,0,0.3,0.1c0.3-0.2,0.5-0.5,0.8-0.8c3-3.1,5.6-4.6,7.9-4.6c0.7,0,1.2,0.2,1.7,0.6
			c0.6,0.5,0.9,1.1,0.9,1.9c0,1.3-0.6,2.8-1.7,4.6c-2.4,3.8-5.9,6.4-10.7,7.8V59c0,0.5,0.1,0.9,0.4,1.3c0.6,0.9,1.6,1.3,2.9,1.3
			c3,0,6.4-2.2,10.2-6.7c0.5-0.6,1-1,1.4-1.1c0.2-0.4,0.4-0.9,0.7-1.4c1.8-3.5,4-6.2,6.6-8.1c1.7-1.2,3.3-1.8,4.9-1.8
			c1,0,1.8,0.3,2.5,0.9c0.5,0.5,0.8,1.1,0.8,1.8c0,0.5-0.2,1.2-0.6,2.1c0.3,0.5,0.5,0.9,0.5,1.3c0,0.5-0.3,1.3-1,2.4
			c-0.6,1.2-1.3,2.7-2,4.6c-0.7,2.1-1.1,3.7-1.1,4.9c0,1,0.3,1.8,0.9,2.4c0,0.1,0.1,0.1,0.2,0.2c0.3-1.4,1-3.1,1.9-5.3
			c1.6-3.8,3.5-7.3,5.5-10.3c1.4-2.1,2.5-3.2,3.3-3.2c0.7,0,1.1,0.3,1.1,1.1c0,0.4-0.4,1.2-1.3,2.5c-1.5,2.5-2.5,4.3-3,5.5
			c2-2.1,3.7-3.7,5.2-4.9c2.3-1.7,3.8-2.6,4.6-2.6c0.4,0,0.7,0.1,1,0.4c0.3,0.2,0.4,0.5,0.4,0.8c0,0.5-0.4,1.2-1.2,2.2
			c-1.2,1.6-2.1,3-2.6,4.1c5.5-5.5,9.3-8.3,11.3-8.3c0.4,0,0.8,0.1,1.1,0.4c0.3,0.3,0.5,0.7,0.5,1.1c0,0.6-0.5,1.5-1.6,1.8
			c-4.4,4.5-6.6,8.3-6.6,11.2c0,1.2,0.2,2.1,0.6,2.6l0.9,1.2c0.2,0.2,0.3,0.5,0.3,0.8c0,0.4-0.2,0.8-0.5,1.1
			c-0.4,0.4-0.8,0.6-1.2,0.6c-0.7,0-1.4-0.5-2.1-1.5c-0.8-1.1-1.2-2.5-1.2-4.1c0-2.2,0.6-4.3,1.8-6.5c0.4-0.8,1.1-1.8,2.1-3.1
			c-2,1.5-4,3.6-6.1,6.2c-1.4,1.8-2.7,3.8-3.8,6c-0.5,1.1-1.2,1.6-1.9,1.6c-0.8,0-1.2-0.4-1.2-1.3s0.7-2.9,2-5.9
			c0.8-1.7,1.7-3.5,2.8-5.4c-4,3.1-7,7.3-9,12.6c-0.5,1.2-1.2,1.8-2,1.8c-0.1,0-0.1,0-0.2,0s-0.3,0-0.4,0c-1.3,0-2.4-0.6-3.3-1.7
			c-0.7-0.9-1.1-2-1.1-3.4c0-0.4,0-1.2,0.1-2.3c-0.8,1.3-1.5,2.5-2.3,3.4c-1.5,1.8-2.9,2.7-4.4,2.7c-1.3,0-2.3-0.6-3-1.8
			c-0.5-0.7-0.7-1.6-0.7-2.7c0-0.7,0.1-1.4,0.2-2.2c-0.1,0.1-0.3,0.3-0.5,0.5c-1.7,1.7-3.6,3.1-5.6,4.2c-2,1.1-3.9,1.6-5.6,1.6
			s-3.1-0.6-4.1-1.8c-0.7-0.8-1-1.9-1-3.4c0-2.1,0.5-4.1,1.5-6.1c-1.8,1.1-3.4,1.7-5,1.7c-0.8,0-1.5-0.2-2.1-0.6
			c-0.5-0.4-0.8-1-0.8-1.8c0-0.6,0.2-1.2,0.7-2c-1.8,1.4-4,3.6-6.5,6.8c-1.4,2-2.9,4.4-4.3,7.3c-0.6,1.1-1,2.1-3.8,2.1
			c-0.5,0-1.1-0.3-1.8-1c-0.9-0.9-1.5-2-1.7-3.2c0-0.5-0.1-1.5-0.2-2.9c-2.4,4.4-4.8,6.6-7,6.6c-1.3,0-2.3-0.7-3.1-2.2
			c-0.5-1-0.8-2.1-0.8-3.3c0-3.6,1.3-7.3,4-11c2.6-3.7,5.5-5.5,8.5-5.5c0.8,0,1.7,0.3,2.6,0.9c2.3-4.9,4.5-9.2,6.6-12.8
			c2-3.5,3.4-5.7,4.1-6.6C331.9,24.8,332.7,24.3,333.4,24.3 M361.9,61.4c1.1,0,2.4-1.2,3.9-3.6c0.8-1.3,1.9-3.2,3.1-5.8
			c0.8-1.6,1.4-2.7,1.9-3.4c0.2-0.3,0.5-0.6,1-1c-0.3-0.5-0.5-0.8-0.9-1.1c-0.4-0.3-0.7-0.4-1.1-0.4c-1.8,0-3.7,1.6-5.8,4.7
			c-2.3,3.5-3.4,6.4-3.4,8.8c0,0.5,0.1,1,0.3,1.3S361.5,61.4,361.9,61.4 M344.8,55.6c1.7-0.6,3-1.2,3.9-1.9c1.6-1.3,2.9-2.7,3.9-4.3
			c0.3-0.6,0.5-1.1,0.5-1.5c0-0.5-0.3-0.7-0.7-0.7c-0.6,0-1.5,0.5-2.6,1.4C347.8,50.2,346.1,52.5,344.8,55.6 M310.1,62.5
			c0.8,0,1.8-0.8,3-2.4c1.6-2.1,3.1-4.6,4.4-7.5c0.5-1,1-2,1.4-3l0.3-0.7l0.2-0.4c-0.7-0.4-1.2-0.6-1.7-0.6c-2,0-3.8,1.2-5.6,3.6
			c-2.3,3.1-3.5,6.2-3.5,9.1c0,0.4,0.1,0.7,0.2,1C309.1,62.2,309.5,62.5,310.1,62.5 M333.4,24.1c-0.8,0-1.7,0.6-2.5,1.6
			c-0.8,1-2.3,3.4-4.1,6.6c-2,3.4-4.1,7.6-6.5,12.6c-0.8-0.5-1.7-0.8-2.5-0.8c-3.2,0-6.1,1.9-8.7,5.6c-2.7,3.7-4,7.4-4,11.1
			c0,1.2,0.3,2.3,0.8,3.4c0.8,1.6,1.9,2.3,3.3,2.3c2.2,0,4.5-2,6.8-6c0,0.2,0,0.3,0,0.5c0.1,0.7,0.1,1.3,0.1,1.6
			c0.2,1.3,0.8,2.4,1.8,3.4c0.7,0.7,1.4,1.1,2,1.1c2.8,0,3.4-1,3.9-2.1l0.1-0.2c1.2-2.5,2.6-4.9,4.3-7.3c1.9-2.4,3.8-4.5,5.5-6
			c-0.1,0.4-0.2,0.7-0.2,1.1c0,0.8,0.3,1.5,0.9,2c0.7,0.4,1.4,0.7,2.3,0.7c1.4,0,2.8-0.4,4.4-1.3c-0.8,1.8-1.2,3.6-1.2,5.5
			c0,1.6,0.3,2.7,1.1,3.6c1,1.2,2.5,1.9,4.3,1.9c1.8,0,3.8-0.5,5.7-1.6c2.1-1.1,4-2.6,5.6-4.2c-0.1,0.5-0.1,1-0.1,1.5
			c0,1.2,0.2,2.1,0.7,2.8c0.7,1.3,1.8,1.9,3.2,1.9c1.5,0,3-0.9,4.6-2.8c0.6-0.7,1.2-1.6,1.8-2.6c0,0.6,0,1,0,1.3
			c0,1.4,0.4,2.6,1.2,3.6c1,1.2,2.2,1.8,3.5,1.8h0.4h0.2c0.6,0,1.6-0.3,2.2-2c1.8-4.8,4.5-8.7,7.9-11.7c-0.7,1.3-1.4,2.7-2.2,4.3
			c-1.4,3.2-2,5.1-2,6c0,1.3,0.8,1.6,1.5,1.6c0.9,0,1.6-0.6,2.1-1.7c1-2,2.3-4.1,3.8-5.9c1.6-2,3.1-3.6,4.5-4.9
			c-0.4,0.6-0.7,1.1-0.9,1.5c-1.2,2.3-1.8,4.4-1.8,6.6c0,1.7,0.4,3.1,1.2,4.2c0.7,1.1,1.5,1.6,2.3,1.6c0.5,0,0.9-0.2,1.4-0.7
			c0.4-0.4,0.6-0.8,0.6-1.3c0-0.4-0.1-0.7-0.4-1l-0.9-1.2c-0.4-0.5-0.6-1.3-0.6-2.5c0-2.8,2.2-6.6,6.5-11c1.1-0.3,1.7-1.3,1.7-2
			c0-0.4-0.2-0.9-0.6-1.3c-0.3-0.3-0.7-0.5-1.3-0.5c-1.9,0-5.3,2.4-10.3,7.2c0.5-0.8,1.1-1.6,1.8-2.6c0.9-1.1,1.3-1.8,1.3-2.3
			c0-0.4-0.2-0.8-0.5-1c-0.3-0.3-0.6-0.4-1.1-0.4c-0.8,0-2.2,0.8-4.7,2.6c-1.2,1-2.6,2.3-4.2,3.8c0.5-1,1.3-2.4,2.3-4.1
			c1.2-1.7,1.3-2.3,1.3-2.6c0-0.9-0.5-1.4-1.4-1.4c-0.9,0-2,1.1-3.5,3.3c-2.1,3.1-4,6.7-5.5,10.3l0,0.1c-0.8,1.9-1.4,3.5-1.8,4.8
			c-0.5-0.5-0.7-1.2-0.7-2.1c0-1.1,0.3-2.6,1.1-4.8c0.7-2,1.5-3.6,2-4.6c0.7-1,1-1.9,1-2.5c0-0.4-0.2-0.8-0.5-1.3
			c0.4-0.9,0.6-1.6,0.6-2.1c0-0.7-0.3-1.4-0.9-2c-0.8-0.7-1.6-1-2.7-1c-1.6,0-3.3,0.6-5,1.8c-2.6,1.9-4.9,4.7-6.7,8.2
			c-0.2,0.3-0.4,0.7-0.5,1c0,0.1-0.1,0.2-0.1,0.3c-0.5,0.2-1.1,0.7-1.4,1.1c-3.7,4.4-7.1,6.6-10,6.6c-1.3,0-2.2-0.4-2.7-1.2
			c-0.3-0.3-0.4-0.7-0.4-1.2v-0.4c4.7-1.4,8.2-4,10.7-7.9c1.2-1.9,1.7-3.4,1.7-4.7c0-0.9-0.3-1.5-1-2.1c-0.6-0.5-1.1-0.7-1.9-0.7
			c-2.4,0-5,1.5-8.1,4.7c-0.1,0.1-0.2,0.2-0.3,0.3c-0.1,0.1-0.2,0.3-0.3,0.4c-0.1,0-0.2,0-0.3,0c-0.4,0-0.7,0.1-1.2,0.4
			c-2.4,1.6-4.1,2.5-5.1,2.5c-0.6,0-0.6-0.3-0.6-0.5c0-0.9,1.1-2.2,3.5-4.1c0.9-0.7,1.4-1.4,1.4-1.9c0-0.3-0.1-0.6-0.3-0.9
			c-0.4-0.5-0.8-0.9-1.3-0.9c-0.3,0-0.6,0.2-1.3,0.5c-1.4,0.8-2.6,1.6-3.5,2.4c-2.5,1.9-4.7,3.9-6.8,6c0.4-0.8,1-1.6,1.7-2.6
			c0.7-0.9,1.2-1.5,1.5-1.9c0.2-0.3,0.3-0.4,0.4-0.5c0.5-0.6,0.7-1.1,0.7-1.6c0-0.5-0.3-0.8-0.6-1.1c-0.4-0.3-0.6-0.4-1-0.4
			c-1,0-2.2,0.9-3.6,2.7c-2.2,2.8-4.3,6.9-6.3,12.1c-0.7,2-1.3,3.4-1.6,4.5c0,0-0.1-0.1-0.1-0.1c0,0-0.1-0.1-0.1-0.1
			c-0.5-0.8-0.7-1.8-0.7-3c0-3.3,1.6-8.2,4.9-14.7c2.6-5.3,5.7-10.7,9.4-16.7c0.8-1.4,1.2-2.3,1.2-2.8c0-0.5-0.1-0.8-0.5-1.2
			C334.3,24.4,333.9,24.1,333.4,24.1L333.4,24.1z M361.9,61.2c-0.3,0-0.6-0.2-0.8-0.4c-0.2-0.2-0.3-0.7-0.3-1.2
			c0-2.4,1.1-5.2,3.4-8.7c2.1-3.1,3.9-4.6,5.6-4.6c0.4,0,0.6,0.1,0.9,0.4c0.3,0.2,0.5,0.5,0.7,0.8c-0.4,0.4-0.7,0.6-0.9,0.9
			c-0.5,0.7-1,1.7-1.9,3.4c-0.9,2.1-2,3.9-3.1,5.8C364.1,60,362.9,61.2,361.9,61.2L361.9,61.2z M345.2,55.2c1.2-2.7,2.8-4.8,4.7-6.4
			c1.4-1.1,2.1-1.3,2.4-1.3c0.3,0,0.5,0.1,0.5,0.5c0,0.4-0.2,0.9-0.5,1.4c-0.9,1.5-2.2,2.9-3.8,4.2
			C347.8,54.1,346.7,54.6,345.2,55.2L345.2,55.2z M310.1,62.3c-0.5,0-0.8-0.2-1.1-0.8c-0.1-0.3-0.2-0.5-0.2-0.9c0-2.9,1.2-5.9,3.5-9
			c1.8-2.4,3.5-3.5,5.4-3.5c0.4,0,0.8,0.1,1.4,0.5l-0.1,0.2l-0.3,0.7c-0.4,1-0.9,2-1.4,3c-1.2,2.8-2.7,5.3-4.4,7.5
			C311.4,61.9,310.6,62.3,310.1,62.3L310.1,62.3z"/>
	</g>
	<g class="st2">
		<g>
			<g>
				<path class="st5" d="M402.1,76.8c-0.2,0-0.4,0-0.6,0c-0.6-0.1-1-0.3-1.5-0.6c-0.2-0.2-0.4-0.4-0.2-0.8c0.2-0.8,0.7-1.5,1.4-2.3
					c0.9-1.1,1.8-1.6,2.6-1.6c0.1,0,0.1,0,0.2,0c0,0,0,0,0,0c0.5,0,0.9,0.2,1.2,0.5c0.3,0.3,0.4,0.8,0.4,1.5
					c-0.1,1.1-0.6,2.1-1.5,2.8C403.6,76.6,403,76.8,402.1,76.8z"/>
				<path class="st6" d="M403.9,71.5c0.1,0,0.1,0,0.2,0c1.1,0,1.6,0.7,1.5,1.8s-0.6,2-1.5,2.7c-0.5,0.5-1.2,0.6-1.9,0.6
					c-0.2,0-0.4,0-0.6,0c-0.6-0.1-1-0.3-1.4-0.6c-0.2-0.2-0.3-0.4-0.2-0.7c0.2-0.7,0.6-1.4,1.4-2.3
					C402.1,72.2,402.9,71.5,403.9,71.5 M403.9,71.3L403.9,71.3c-0.9,0-1.7,0.5-2.7,1.6c-0.8,0.9-1.2,1.6-1.5,2.4
					c-0.2,0.5,0.1,0.8,0.3,0.9c0.5,0.4,1,0.6,1.5,0.7c0.2,0,0.4,0,0.6,0c0.8,0,1.5-0.2,2.1-0.7c0.9-0.7,1.5-1.7,1.6-2.9
					c0.1-0.7-0.1-1.2-0.4-1.6c-0.3-0.3-0.8-0.5-1.3-0.5C404,71.3,403.9,71.3,403.9,71.3L403.9,71.3z"/>
			</g>
		</g>
	</g>
	<g class="st2">
		<g>
			<path class="st5" d="M404.8,65.6c-0.6,0-1.4-0.4-1.8-0.9c-0.3-0.4-0.5-0.8-0.4-1.1c0.9-6.1,3.2-11.3,6-17.9
				c1.5-3.4,3.1-7.3,4.8-11.8c0.5-1.3,1.5-2,2.2-2c0.3,0,0.5,0.1,0.6,0.3c0.2,0.2,0.3,0.7,0,1.6c-1.7,5.1-3.4,9.3-4.9,13.1
				c-2.6,6.7-4.7,11.9-5.5,17.9C405.8,65.3,405.4,65.6,404.8,65.6z"/>
			<path class="st6" d="M415.7,32c0.6,0,0.9,0.5,0.5,1.7c-4.9,14.3-9.2,21.7-10.4,31c-0.1,0.5-0.5,0.8-0.9,0.8
				c-0.9,0-2.2-0.9-2.1-1.9c1.4-9.2,5.8-16.4,10.8-29.7C414,32.7,415,32,415.7,32 M415.7,31.7L415.7,31.7c-0.7,0-1.8,0.7-2.3,2.1
				c-1.7,4.6-3.4,8.4-4.8,11.8c-2.8,6.6-5.1,11.8-6,17.9c-0.1,0.4,0.1,0.9,0.4,1.2c0.5,0.5,1.2,0.9,1.9,0.9c0.7,0,1.1-0.4,1.2-1
				c0.8-6,2.9-11.2,5.5-17.9c1.5-3.7,3.2-8,4.9-13.1c0.3-1,0.2-1.5,0-1.7C416.2,31.9,416,31.7,415.7,31.7L415.7,31.7z"/>
		</g>
	</g>
</g>
</svg>
