<?xml version="1.0" encoding="utf-8"?>
<!-- Generator: Adobe Illustrator 24.0.2, SVG Export Plug-In . SVG Version: 6.00 Build 0)  -->
<svg version="1.1" id="Capa_1" xmlns="http://www.w3.org/2000/svg" xmlns:xlink="http://www.w3.org/1999/xlink" x="0px" y="0px"
	 viewBox="0 0 300 300" style="enable-background:new 0 0 300 300;" xml:space="preserve">
<g>
	<path d="M201.9,248.2c0.6-7.7-2.5-15.4-6.8-22.9c-12.2-20.7-23.6-41.9-36.2-62.3c-5.4-8.8-4.9-16,0.2-24.5
		c12.9-21.7,25.8-43.5,37.8-65.8c12.6-23.5,3.1-50.2-20.6-60.5c-19-8.3-41.5-2.9-52.4,15.2C102.8,62,83,97.3,63.2,132.6
		c-7.6,13.6-6,27.9,1.6,41.1c18.4,32.2,36.9,64.3,55.7,96.3c11,18.7,30.6,27.1,49.3,22C191.1,286.2,202,271.7,201.9,248.2z"/>
</g>
</svg>
