<?xml version="1.0" encoding="utf-8"?>
<!-- Generator: Adobe Illustrator 24.0.2, SVG Export Plug-In . SVG Version: 6.00 Build 0)  -->
<svg version="1.1" id="Capa_1" xmlns="http://www.w3.org/2000/svg" xmlns:xlink="http://www.w3.org/1999/xlink" x="0px" y="0px"
	 viewBox="0 0 300 300" style="enable-background:new 0 0 300 300;" xml:space="preserve">
<g>
	<path d="M75.7,247.2c-0.6-7.7,2.5-15.4,6.8-22.9c12.2-20.7,23.6-41.9,36.2-62.3c5.4-8.8,4.9-16-0.2-24.5
		C105.7,115.8,92.8,94,80.9,71.7c-12.6-23.5-3.1-50.2,20.6-60.5c19-8.3,41.5-2.9,52.4,15.2c21,34.6,40.8,69.9,60.5,105.2
		c7.6,13.6,6,27.9-1.6,41.1c-18.4,32.2-36.9,64.3-55.7,96.3c-11,18.7-30.6,27.1-49.3,22C86.5,285.1,75.6,270.6,75.7,247.2z"/>
</g>
</svg>
