<?xml version="1.0" encoding="utf-8"?>
<!-- Generator: Adobe Illustrator 24.0.2, SVG Export Plug-In . SVG Version: 6.00 Build 0)  -->
<svg version="1.1" id="Capa_1" xmlns="http://www.w3.org/2000/svg" xmlns:xlink="http://www.w3.org/1999/xlink" x="0px" y="0px"
	 viewBox="0 0 300 300" style="enable-background:new 0 0 300 300;" xml:space="preserve">
<style type="text/css">
	.st0{fill:#020202;}
</style>
<g>
	<path class="st0" d="M151.3,12c74.5,0.1,136.8,62.9,136.7,137.6c-0.2,76.6-61.9,138.5-138.1,138.5c-75.7,0-137.8-62-137.6-137.5
		C12.3,73.3,73.9,11.9,151.3,12z M127.4,141.7c15-16.9,30.1-33.7,45.1-50.6c1.8-2,3.6-4,5.2-6.1c2.9-3.7,4-7.6-0.1-11
		c-3.9-3.3-6.9-1.1-9.7,2.1c-12,13.4-24.2,26.6-36.3,40c-7.4,8.3-14.5,16.8-22.1,24.9c-4.8,5.1-5.5,9.2-0.5,14.8
		c19.2,21.4,37.9,43.1,57,64.6c3.2,3.6,6.8,8.9,12.2,3.5c4.8-4.8,0.8-9-2.5-12.8c-16.1-18.5-32.2-37-48.2-55.5
		c-1.8-2-3.4-4.1-5.4-6.6C123.8,146.5,125.5,143.9,127.4,141.7z"/>
</g>
</svg>
