<?xml version="1.0" encoding="utf-8"?>
<!-- Generator: Adobe Illustrator 24.0.2, SVG Export Plug-In . SVG Version: 6.00 Build 0)  -->
<svg version="1.1" id="Capa_1" xmlns="http://www.w3.org/2000/svg" xmlns:xlink="http://www.w3.org/1999/xlink" x="0px" y="0px"
	 viewBox="0 0 300 300" style="enable-background:new 0 0 300 300;" xml:space="preserve">
<style type="text/css">
	.st0{fill:#020202;}
</style>
<g>
	<path class="st0" d="M287.9,150.6c0.1,75.5-61.9,137.5-137.6,137.5c-76.2,0-138-61.9-138.1-138.5C12,74.9,74.4,12.2,148.9,12
		C226.2,11.9,287.8,73.3,287.9,150.6z M178.1,148.9c-2,2.5-3.7,4.6-5.4,6.6c-16.1,18.5-32.2,37-48.2,55.5c-3.3,3.8-7.3,8-2.5,12.8
		c5.4,5.4,9,0.1,12.2-3.5c19.1-21.5,37.8-43.2,57-64.6c5-5.6,4.3-9.7-0.5-14.8c-7.6-8.1-14.7-16.7-22.1-24.9
		c-12-13.4-24.2-26.6-36.3-40c-2.8-3.1-5.8-5.4-9.7-2.1c-4.1,3.5-3,7.4-0.1,11c1.7,2.1,3.5,4.1,5.2,6.1c15,16.9,30.1,33.7,45.1,50.6
		C174.7,143.9,176.3,146.5,178.1,148.9z"/>
</g>
</svg>
